<?xml version="1.0" encoding="utf-8"?>
<!-- Generator: Adobe Illustrator 20.1.0, SVG Export Plug-In . SVG Version: 6.00 Build 0)  -->
<svg version="1.1" xmlns="http://www.w3.org/2000/svg" xmlns:xlink="http://www.w3.org/1999/xlink" x="0px" y="0px"
	 viewBox="0 0 2202.7 1362.3" style="enable-background:new 0 0 2202.7 1362.3;" xml:space="preserve">
<style type="text/css">
	.st0{fill:#5BFFDA;}
	.st1{fill:#FF48BE;}
	.st2{fill:#FFFFFF;}
</style>
<g id="Слой_2">
</g>
<g id="Слой_5">
</g>
<g id="Слой_1">
	<g>
		<path class="st0" d="M1445.3,758.1c-0.5,3.1-0.8,6.2-1.4,9.1c-0.5,2.2-1,4.4-1.7,6.5c19.8-7.8,44.6-15.2,71-17.4
			c-25.4-79.6-71.4-164.4-98.7-164.4c-2.6,0-5,0.9-7.5,2.6c-15.7,11.2-56.9,44.3-74.1,90.8c33.3,25.7,65,53.9,93.7,84.8
			c0.3-0.3,0.3-0.5,0.5-0.8c0.5-0.9,1-1.9,1.5-2.8c0.5-1.1,1-2.3,1.5-3.6c1-2.3,1.7-4.9,2.7-7.5c0.6-2.6,1.7-5.5,2.2-8.4
			c0.6-2.9,1.3-5.9,1.7-9c0.4-3,0.8-6.1,0.9-9.2c0.2-3.1,0.5-6.1,0.4-9c0-2.9,0.1-5.7,0-8.5c-0.1-2.6-0.2-5.2-0.4-7.6
			c-0.2-4.8-0.8-8.7-1-11.4c-0.3-2.8-0.5-4.4-0.5-4.4s0.4,1.5,1.2,4.2c0.8,2.7,2.1,6.4,3.3,11.2c0.6,2.4,1.1,4.9,1.8,7.6
			c0.6,2.7,1,5.6,1.6,8.6c0.6,2.9,0.9,6.1,1.3,9.3c0.4,3.1,0.6,6.4,0.7,9.7c0.2,3.3,0.1,6.6,0.1,9.9
			C1446,751.8,1445.5,755,1445.3,758.1z"/>
		<path class="st0" d="M1047,968.1c-33.1,0-66.1,9.3-98.8,27.8c-3.3,1.9-6.8,4-10.1,6c-3.1,1.9-6.1,3.9-9.2,6
			c-19.3,13.1-38.4,29.2-57.4,48.8c-2.5,13.8,22.7,42.6,43.1,65.9c9.8,11.3,20,22.8,28.7,34.2c22.8,29.7,31.2,54.9,25.7,77.2
			c-4.9,19.9-21,36.4-47.9,48.9c-3.5,2.8-4.8,8.8-5.1,14.9c10.7-10.8,23.4-16.5,37.3-16.5c1,0,1.7,0.1,2.6,0.3
			c0.2-0.7,0.5-1.3,0.7-1.8c0.7-2.2,2-4.3,2.9-6.5c1.3-2.1,2.4-4.3,4.1-6.2c1.4-2,3.2-3.8,5-5.5c2-1.4,4.1-2.9,6.3-3.6
			c2.3-0.9,4.8-1.2,6.9-0.8c1.2,0.1,2.1,0.7,3,1c0.5,0.3,0.9,0.4,1.4,0.6l1.1,1c0.7,0.5,1.4,1,2,1.5c0.5,0.7,1,1.3,1.4,1.8
			c1,1.1,1.6,2.1,2.1,3.1c0.9,1.8,1.5,2.7,1.5,2.7s-0.7-0.8-2-2.4c-0.6-0.7-1.4-1.7-2.5-2.5c-0.5-0.6-1-0.9-1.6-1.5
			c-0.7-0.4-1.3-0.8-2.1-1.1l-1-0.6c-0.4-0.1-0.8-0.2-1.2-0.3c-0.8-0.1-1.6-0.5-2.5-0.3c-1.8,0-3.4,0.5-5,1.3
			c-1.7,1-3.1,2.4-4.5,3.8c-1.2,1.6-2.4,3.3-3.3,5.3c-1,1.7-1.7,3.8-2.4,5.7c-0.6,2.1-1.3,3.9-1.6,6c-0.4,2,1.1,13.7,1.1,13.7
			c0.8,3.8,1.4,8.2,2.1,13.2c1.3,10,3,22.8,6.4,32.6c9.5-7.6,17.7-18.5,24.1-27.1c6.7-9,11.4-15,17-16.9c0-1,0-2,0.1-3
			c0.1-2.8,0.6-5.9,1.2-9c0.7-3.1,1.6-6.3,3-9.6c1.2-3.2,3-6.4,5.1-9.5c2.3-2.9,4.9-5.9,8.4-7.9c3.3-2.2,7.4-3.1,11.3-3.1
			c3.9,0.4,7.3,1.5,10.5,3.2c2.7,1.5,5.6,3.6,7.8,5.6c2.2,2.1,4.1,4.4,5.3,6.7c2.7,4.7,3.5,9.1,3.8,12c0.3,3.1-0.1,4.7-0.1,4.7
			s0.1-1.7-0.5-4.6c-0.7-2.9-1.9-7.1-4.9-11c-1.5-2-3.4-4-5.6-5.6c-2.3-1.8-4.6-3-7.7-4.3c-2.7-1.2-5.7-1.7-8.6-1.6
			c-2.8,0.4-5.6,1.2-7.8,3.2c-2.3,1.5-4.1,4.2-5.5,6.7c-1.5,2.6-2.6,5.4-3.4,8.2c-0.7,2.9-1.1,5.7-1.4,8.4c-0.1,2.6-0.3,5.2-0.1,7.6
			c0,1.8,0.3,3.5,0.5,5.1c0.1,0.3,0.1,0.8,0.1,1.2c0.5,1.6,0.8,3.1,1.1,4.3c0.5,1.5,0.8,2.6,1.1,3.4c0,0,17.5,46.8,21,53.5
			c5.2-4.7,15.4-19.1,23.3-46.9l0.3-1.2l0.6-1c5.2-8.8,12.3-10.2,16.1-10.2c17.2,0,31.8,26.6,40.4,46.4c1.9-3.4,3.7-8,5-13.3
			c3.6-13.4,6.5-47.2,6.5-47.2c0-0.4,0.1-0.9,0-1.2c0.1-0.8,0-1.7-0.2-3c-0.2-1.3-0.4-2.6-0.9-4.1c-0.8-3-2.3-6.5-4.5-9.9
			c-0.1-0.1-0.1-0.1-0.1-0.1c-2.3-3.4-5.2-6.6-8.9-8.6c-3.6-2.2-7.9-2.9-11.6-1.5c-1.8,0.6-3.5,1.8-4.9,3.2
			c-1.4,1.2-2.7,2.8-3.6,4.3c-1,1.3-1.7,2.8-2.5,4.1c-0.6,1.4-1.2,2.5-1.6,3.5c-0.7,2-1.2,3.2-1.2,3.2s0.3-1.2,0.7-3.3
			c0.2-1.1,0.6-2.3,1-3.8c0.6-1.4,1-3.1,1.9-4.7c0.7-1.7,1.8-3.5,3.2-5.3c1.4-1.6,3.1-3.4,5.4-4.7c2.1-1.3,4.9-2.1,7.7-2.2
			c2.9-0.1,5.6,0.5,8.2,1.5c1.2,0.5,2.2,0.9,3.2,1.6c-3.5-13.1-8.7-25-15.5-34.3c-29.9-40.3-41.9-80.1-43.9-87.5
			c-0.6-1-1.4-2.5-2.5-4.5c-1.1-1.9-2.3-4.3-3.7-7.1c-0.4-0.6-0.8-1.5-1.2-2.1c-1.1-2.1-2.2-4.1-3.7-6.3c-1.7-3.1-4-6.2-6.3-9.5
			c-2.5-3.3-5-6.6-8.1-9.9c-1.4-1.7-3-3.4-4.7-4.8c-1.7-1.6-3.2-3.3-5.1-4.8c-3.6-2.9-7.3-6.1-11.4-8.6c-3.9-2.9-8.1-5.3-12.3-7.6
			c-2-1.3-4.2-2.2-6.3-3.2c-2.2-0.9-4.2-2-6.3-2.9c-4.2-1.9-8.5-3.2-12.5-4.8c-3.9-1.6-7.9-2.4-11.5-3.5c-3.6-1-6.8-2-9.9-2.5
			c-2.9-0.6-5.5-1.1-7.6-1.6c-4.3-0.9-6.8-1.4-6.8-1.4s2.5,0.2,6.9,0.5c2.2,0.2,4.9,0.5,7.9,0.7c3.1,0.2,6.5,0.9,10.2,1.5
			c3.7,0.7,7.8,1.1,12,2.2c4.2,1,8.7,1.9,13.3,3.3c2.2,0.8,4.5,1.5,6.9,2.2c2.3,0.8,4.7,1.6,7,2.6c4.6,1.9,9.4,3.9,13.9,6.5
			c4.7,2.2,9,5.1,13.3,7.9c2.1,1.4,4.1,3,6.1,4.5c2.1,1.5,4,3,5.8,4.7c3.8,3.1,7.1,6.6,10.3,9.9c3,3.3,5.9,6.5,8.2,9.7
			c2.5,3,4.4,6,6.4,8.5c1.7,2.5,3.2,4.6,4.5,6.4c0.3,0.6,0.7,1.1,1,1.6c4.4,0.3,11.9,0.7,21.1,0.7c39.8,0,69.4-7.3,83.9-20.3
			c2.7-2.5,4.9-5.1,6.5-7.9c0.1-0.1,0.2-0.1,0.3-0.3c1.4-2.6,2.4-5.4,3.1-8.5c2.5-13.1-2.6-30.2-15.5-51
			C1174.1,1014.8,1120.4,968.1,1047,968.1z"/>
		<path class="st0" d="M1200.6,546.7c-21.9-15.2-63.3-38-91.1-52.2l-7.7-4l6.1-6.1c3.2-3.3,9.2-4.6,22-4.6c7.2,0,15.8,0.4,24,0.9
			c0.7,0,1.4,0,2.2,0.1c-34.1-16.4-112.4-34.6-167.6-47.6c-18.4-4.3-35.6-8.3-50.4-12c-10.5-2.6-22.3-4-35-4
			c-51.7,0-100.4,20.6-113.1,30.7c-0.5,0.3-0.9,0.8-1.3,1c30.7,6.6,59.2,13.2,85.7,19.9c186.1,47.2,268.8,96.6,298.5,114.3
			c0.3,0.2,0.6,0.3,0.9,0.5c-10.3-13.2-31.5-24.1-40.6-27.8l-29.3-12.2h31.7C1137.2,543.7,1168.9,543.7,1200.6,546.7z"/>
		<path class="st0" d="M508.7,591.7c-15.9-10.2-30.5-15.4-43.6-15.4c-28.5,0-46.3,26-54.2,57.5c-0.9,3.7-1.8,7.6-2.5,11.4
			c-0.6,4-1.2,8.1-1.6,12.1c-0.4,3.7-0.6,7.3-0.7,11l-0.9,27.7l-16.1-22.5c-15.4-21.6-36.9-46.4-66.4-46.4c-13.7,0-28.6,5.4-44,16
			c-56.6,38.7-27.3,235.9-17.9,256c7.9,16.7,5,55.5,0.8,84.3c5.6-9.5,12.8-24.5,22.4-45.2l6-13.1l9.6,10.9
			c7.4,8.4,14.9,33.6,19.9,57.2c4.3-12.4,6.7-30.6,4.9-60.3l-1.7-27.2l18,20.4c14.1,16.2,25.5,38.9,36.2,61.8
			c2.9-14.3,0.5-30.9-11-67.9l-7.2-23.3l20.9,12.6c10.4,6.2,23.1,19.6,32.5,30.5c0.7-7.8,4-18.3,0-27.6c-2.5-5.7-9.4-10.6-15.4-17.6
			c-14.9-17.5-34.5-41.3-51.8-66.8c-4.3-6.3-8.5-12.8-12.4-19.3c-4-6.4-7.5-13-10.9-19.4c-3.2-6.4-6.2-12.9-8.6-19
			c-2.4-6.2-4.4-12.2-5.6-17.8c-0.7-2.9-1.4-5.5-1.6-8.2c-0.2-1.3-0.3-2.6-0.6-3.8c0-1.3,0-2.5-0.1-3.6c-0.1-1.2-0.1-2.3-0.2-3.4
			c0.1-1.1,0.2-2.2,0.2-3.2c0.3-2,0.3-3.9,0.8-5.5c0.4-1.6,0.7-3.1,1-4.4c0.5-1.3,1-2.3,1.3-3.1c0.7-1.6,1-2.5,1-2.5
			s-0.3,0.9-0.9,2.5c-0.2,0.9-0.6,2-1,3.2c-0.2,1.2-0.5,2.7-0.7,4.3c-0.3,1.7-0.3,3.5-0.3,5.5c0,0.9,0,2,0,3.1
			c0.1,1,0.2,2.2,0.3,3.2c0.1,1.2,0.2,2.4,0.5,3.6c0.2,1.2,0.5,2.4,0.7,3.7c0.5,2.5,1.4,5.1,2.1,7.8c1.7,5.4,4.1,11.1,6.8,16.9
			c2.9,5.7,6.1,11.8,9.9,17.7c3.7,6.1,7.7,12.2,12.1,18.2c4.3,6.1,8.9,12,13.6,18c18.8,23.6,39.8,45.6,55.8,61.7
			c0.8,0.7,1.5,1.5,2.2,2.2c5.7,5.7,10.8,10.5,14.7,14.4l2,1.7c1.9,1.6,3.8,3.6,5.8,5.6c7.4,7.6,16.6,17.1,30.8,17.1
			c18.2,0,40.8-15.1,67.4-45.1c20.4-22.9,29-53.8,31.9-83.5c0.3-3.7,0.6-7.4,0.8-11.1c0.2-3.8,0.3-7.7,0.4-11.4
			c0.1-18.2-1.4-35-3.3-48.1C551.8,660.6,526,602.8,508.7,591.7z"/>
		<path class="st0" d="M2064.1,914c-14.6-33.5-22.6-30.6-56.6-18.1c-9,3.2-19.2,7.1-31.1,10.4c-52.3,15.2-207.7-36.8-263.3-66
			c-4.4-2.3-8.1-4.5-11.1-6.4c-2.4-1.6-4.5-3.2-6.1-4.4c-0.5-0.6-1.1-1.2-1.5-1.9c-3.4-5.2-6.7-9.6-10-13.6
			c-7-8.2-14.2-13.9-21.4-17.7c-13.7-7.3-27.8-7.7-41.6-5.2c-0.5,0.1-0.9,0.1-1.4,0.2c0.6,0.7,1.3,1.3,2,1.9
			c2.3,2.3,4.8,4.7,7.3,7.1c0.1,0.2,0.4,0.4,0.6,0.6c2.3,2.3,4.3,4.7,6.5,7.1c1,1.1,1.9,2.2,2.9,3.2c1.3,1.5,2.7,2.9,4,4.4
			c2.2,2.7,4.3,5.4,6.3,7.9c0.4,0.5,0.8,0.9,1.2,1.4c1.5,2,3.2,4,4.6,5.9c0.8,0.9,1.4,1.8,2.1,2.9c1,1.3,1.9,2.7,2.8,3.9
			c3.3,4.8,5.9,8.6,7.6,11.1c1.4,2,2.2,3.1,2.2,3.1s-1.5-1.5-4.2-4.2c-2-2-4.6-4.8-7.8-8c-1.7-1.7-3.4-3.6-5.4-5.4
			c-0.1-0.1-0.3-0.2-0.4-0.4c-2.2-1.9-4.5-4-6.9-6.1c-0.3-0.4-0.7-0.7-1.1-0.9c-2-1.8-4.1-3.7-6.3-5.6c-2.6-2.1-5.2-4.2-7.9-6.3
			c-1.4-1-2.7-2.1-4.1-3.2c-0.7-0.6-1.5-1.2-2.3-1.6c-0.5-0.5-1-0.9-1.6-1.2c-2.7-1.9-5.4-3.7-8-5.5c-1.6-1.2-3.1-2.2-4.7-3.2h-0.1
			c-0.3-0.2-0.6-0.4-1-0.7c-0.6-0.4-1.2-0.8-1.8-1.1c-0.4-0.2-0.7-0.4-1.1-0.7c-1.2-0.7-31.8-20.5-67.4-22.6
			c-5-0.2-10.1,0.7-15.1-0.1c-33.3-5.7-140.1,36.7-141.3,34.8c9.3-8.6,13.2-12.2,17.6-14.9c1.1-0.6,3.2-1.8,5.9-3.4
			c2.5-1.4,5.8-3.2,9.6-5.1c0.2-0.1,0.6-0.3,0.9-0.4c-7.1-7.7-14.3-15.2-21.8-22.6c-15-14.9-30.7-29.1-47-42.7
			c-1.2-0.9-2.4-1.9-3.5-2.9c-1.1-1-2.2-1.9-3.3-2.8c-4-3.4-8.2-6.7-12.3-9.8c-0.5-0.4-1.1-0.9-1.5-1.2c-2.2-1.7-4.4-3.4-6.6-5.1
			c-2.7-2.1-5.5-4.1-8.2-6.2c-228-170.1-536-228.4-539.8-229.1c-0.3-0.1-0.7-0.1-1-0.3C605.2,413.7,545.2,328.8,544,265.9
			c-0.9-51.8,35.3-94,99.5-115.7c83.1-28.2,339.6-19.8,589.5,33.7c-7.6-2.4-15.4-4.8-23.5-7.1c-9.2-2.7-18.7-5.5-28.5-8.4
			c-9.8-2.8-19.9-6-30.5-8.8c-10.5-2.7-21.3-5.6-32.4-8.6c-22.1-6.2-45.7-11.5-70.2-17.2c-6.1-1.4-12.3-3-18.6-4.3
			c-6.3-1.3-12.7-2.5-19.1-3.9c-12.8-2.5-25.8-5.5-39.1-7.8c-13.4-2.3-27-4.6-40.8-6.9c-6.8-1.3-13.8-2.2-20.9-3.1
			c-7-0.9-14.1-1.9-21.2-2.8c-57-7.1-117.8-11.6-180.2-8.4c-31.2,2-62.9,5-94,12.3c-31.1,7-62,17-90.5,32.1l-10.6,5.7
			c-3.6,1.8-6.8,4.3-10.2,6.4c-3.3,2.2-6.8,4.4-10.1,6.6l-9.4,7.5c-6.5,4.8-11.9,10.8-17.8,16.2c-2.9,2.8-5.3,5.9-8,8.9
			c-2.7,3-5.3,5.9-7.6,9.3l-6.9,9.7l-5.9,10.3c-2.1,3.4-3.6,7.1-5.2,10.7c-1.7,3.6-3.4,7.1-4.5,11c-5.6,14.9-8.5,30.6-8.7,46.4
			c-0.2,15.8,1.8,31.4,7.8,45.9l2,5.1l2.8,5.1l2.7,5.1c1,1.7,2.2,3.4,3.2,4.9c2.3,3.3,4.3,6.5,6.9,9.5c2.6,3,4.8,6.2,7.6,9
			c10.7,11.9,23.2,22,36.2,31.4c13,9.5,27,17.8,41.2,25.6c28.4,15.5,58.3,28.4,88.1,40.2c29.9,11.8,60,22.1,89.8,31.8
			c59.5,19.7,118.1,36.1,173.5,52.8c13.9,4.2,27.6,8.3,41.1,12.4c13.8,4.3,26.6,8.7,39.6,12.9c12.9,4.6,25.7,9.4,38,14.1
			c12.3,5.1,24.4,9.8,36,15.1c46.7,20.4,87.6,43.2,122.4,65.4c4.4,2.8,8.6,5.6,12.8,8.1c4.1,2.9,8.2,5.7,12.2,8.4
			c4,2.8,7.8,5.5,11.7,8c3.7,2.8,7.3,5.6,10.9,8.2c3.6,2.7,7.1,5.4,10.5,7.9c3.2,2.7,6.5,5.4,9.7,8c3.1,2.6,6.2,5.1,9.2,7.7
			c2.9,2.6,5.8,5.1,8.5,7.5c22.1,19.8,38.1,36.8,47.9,49.3c5.2,6,8.4,11.2,10.9,14.4c2.4,3.3,3.7,5,3.7,5l-1.9,1.4
			c0,0-1.4-1.6-4-4.8c-2.7-3-6.2-7.9-11.8-13.4c-10.6-11.5-27.2-27.6-50.1-45.7c-2.8-2.2-5.8-4.6-8.7-7c-3.1-2.3-6.3-4.6-9.6-7
			c-3.3-2.4-6.6-4.8-10-7.3c-3.5-2.5-7.1-4.8-10.8-7.3c-3.6-2.6-7.3-5.1-11.1-7.6c-3.9-2.5-7.8-5-11.9-7.5c-4-2.5-8-5.1-12.2-7.7
			c-4.2-2.5-8.6-5-12.9-7.5c-35.1-20.5-76.4-40.8-122.7-59.6c-11.5-4.8-23.5-9-35.7-13.8c-12.3-4.2-24.7-8.6-37.4-12.7
			c-12.9-3.9-26.4-8.2-39.5-12c-13.5-3.8-27.2-7.7-41.1-11.6c-27.8-7.6-56.4-15.7-85.6-24.2c-29.2-8.5-59-17.3-89.2-27.1
			c-30.2-10-60.6-20.8-91-33c-30.4-12.2-60.8-26.1-90.1-42.8c-14.7-8.3-29.2-17.4-43-27.8c-13.8-10.3-27.1-21.5-38.8-34.9
			c-11.7-13.3-21.8-28-28.5-45.6l-2.5-6.7c-0.6-2.2-1-4.1-1.6-6.1l-1.5-6.1l-0.3-1.4l-0.1-0.8l-0.2-1.7l-0.5-3.3
			c-0.6-4.4-1.3-8.9-1.3-13.4c-0.1-4.5-0.4-9-0.1-13.4c0.6-17.8,4.2-35.6,10.5-52.1c1.3-4.3,3.3-8.2,5.2-12.2c1.9-4,3.7-8.1,6-11.8
			l6.7-11.3l7.8-10.6c2.5-3.6,5.4-6.9,8.4-10.2c2.9-3.2,5.7-6.6,8.8-9.6c6.4-5.8,12.5-12.2,19.6-17.2l10.2-7.9
			c3.6-2.4,7.2-4.7,10.8-7c3.7-2.3,7.1-4.8,11-6.8l11.3-5.9c30.3-15.4,62.6-25.4,94.8-32.2c32.2-7.1,64.7-9.8,96.4-11.4
			C771,80.6,832.3,85.7,889.7,94c7.2,1,14.3,2.2,21.3,3.2c7.1,1.1,14.2,2.1,21.1,3.5c13.8,2.6,27.4,5.1,40.8,7.6
			c13.4,2.7,26.4,5.8,39.3,8.6c6.5,1.4,12.8,2.8,19.1,4.3c6.3,1.4,12.4,3.1,18.6,4.6c24.4,6.2,48,12,70.1,18.5
			c11.1,3.2,21.8,6.2,32.3,9.2c10.5,2.9,20.5,6.3,30.3,9.3c9.9,3.1,19.3,6,28.5,8.8c9.2,2.8,18,5.7,26.3,8.6
			c14.6,5,27.9,9.5,40.4,13.7c112.4,26.7,221.2,62.7,309.8,109c-72.7-57.9-204.8-137.7-362.6-199.5
			C1036.3,29.5,757.4-40.9,499.8,43.6C362.6,88.4,281.3,156.9,258.1,246.9c-44.2,171.4,136.3,367.5,138,369.4
			c0.1,0.1,0.1,0.2,0.1,0.2c11.5-33.5,34-59,68.8-59c16.7,0,34.7,6.1,53.7,18.3c24.2,15.5,51.4,81.6,60.6,147.3
			c2.4,17.1,4.3,40,3,64.6c1.8,1.4,3.5,2.6,5.4,4.1c77,56.8,189.4,128.1,339.4,194.8c39.3-24.8,79.4-37.2,119.9-37.2
			c82,0,140.6,51.8,156.1,76.8c16,25.9,21.8,47.9,17.6,66.2c0.6,0.2,1.3,0.5,2,0.9c1.4,0.8,127.4,73.1,384.8,2.9
			c-57.2,4.4-146.9,13.1-160,13.7c-60.8,2.6-108.2-147.5-103-156.1c1.1-1.7,10,16.5,16.4,28.4c20.2,37.7,40.7,114.4,91.6,108.7
			c45.3-5,103.8-9.5,165.8-14.3c20.3-1.5,41.1-3.2,62.2-4.9c82.4-6.6,168.1-14.2,237.2-24.5c83.2-12.4,118-25.5,132.4-35
			c-6.9,0.5-13.2,0.8-19,0.8c-35.8,0-52.1-9.4-63.6-16.2c-8.3-4.9-11.1-6.5-18.3-3.7c-30.9,12.1-92.4,20.5-128.6,13.7
			c-10.9-2-19.1-4.9-27.1-7.6c-17.6-6.2-35.8-12.4-87.6-10.4c-48.7,3.8-83-1.1-106.8-8.8c-38.9-12.5-50-32.3-50.6-33.7
			c-7-14-18.9-24.3-33.7-30.2c-11.4-4.6-24.7-6.7-38.6-5.9c-7,0.3-14.2,1.4-21.4,3.3c-51,12.8-90.1-21.5-86.9-25
			c1.6-1.7,40.4,17.5,82.3,6.9c30-7.5,58.6-4.3,80.8,7.6c9.2,4.9,17.2,11.4,23.8,19.3c4,4.7,7.5,9.9,10.3,15.6
			c0.1,0.1,14.7,23.9,72.4,31.3c1.2,0.2,2.4,0.3,3.6,0.4c17.4,2,38.3,2.6,63.8,0.7c55.7-2.4,75.6,4.6,94.8,11.3
			c7.6,2.6,14.9,5.1,24.4,7c28.7,5.4,76.7-0.1,106.9-8.9c4.2-1.3,8-2.5,11.5-3.9c15.8-6.1,25.3-0.5,34.6,5
			c4.8,2.7,10.6,6.1,18.8,8.8c7.7,2.5,17.8,4.4,31.2,4.8c11.1,0.3,24.5-0.5,41.1-2.8c0.1,0,0.1,0,0.1,0c0.1,0,0.1,0,0.2,0
			c1.5-0.2,3.8-0.9,5.9-4.6C2079.8,977.1,2080.4,952.3,2064.1,914z M1496.4,811.4c1.3-4,4.9-6.5,8.9-6.5c0.1,0,0.1,0,0.2,0
			c67.3,1.4,96.7,4.7,105.4,21.3c4.1,7.8,2.6,17-4.4,27.4c-2.2,3.4-6.8,7.4-16.1,7.4l0,0c-24,0-75.3-29-90.4-39.1
			C1496.7,819.7,1495.2,815.4,1496.4,811.4z"/>
		<path class="st0" d="M1596.5,845.8c0.9,0,1.4,0,1.9,0c4.7-7.4,4.7-11.1,4.3-11.9c-5.1-9.7-43.7-14-82.4-16
			C1549.7,832.7,1581.1,845.8,1596.5,845.8L1596.5,845.8z"/>
	</g>
</g>
<g id="Слой_3">
	<g>
		<path class="st1" d="M1371.1,753c-0.5,3.1-0.8,6.2-1.4,9.1c-0.5,2.2-1,4.4-1.7,6.5c19.8-7.8,44.6-15.2,71-17.4
			c-25.4-79.6-71.4-164.4-98.7-164.4c-2.6,0-5,0.9-7.5,2.6c-15.7,11.2-56.9,44.3-74.1,90.8c33.3,25.7,65,53.9,93.7,84.8
			c0.3-0.3,0.3-0.5,0.5-0.8c0.5-0.9,1-1.9,1.5-2.8c0.5-1.1,1-2.3,1.5-3.6c1-2.3,1.7-4.9,2.7-7.5c0.6-2.6,1.7-5.5,2.2-8.4
			c0.6-2.9,1.3-5.9,1.7-9c0.4-3,0.8-6.1,0.9-9.2c0.2-3.1,0.5-6.1,0.4-9c0-2.9,0.1-5.7,0-8.5c-0.1-2.6-0.2-5.2-0.4-7.6
			c-0.2-4.8-0.8-8.7-1-11.4c-0.3-2.8-0.5-4.4-0.5-4.4s0.4,1.5,1.2,4.2c0.8,2.7,2.1,6.4,3.3,11.2c0.6,2.4,1.1,4.9,1.8,7.6
			c0.6,2.7,1,5.6,1.6,8.6c0.6,2.9,0.9,6.1,1.3,9.3c0.4,3.1,0.6,6.4,0.7,9.7c0.2,3.3,0.1,6.6,0.1,9.9
			C1371.8,746.7,1371.3,749.9,1371.1,753z"/>
		<path class="st1" d="M972.8,963c-33.1,0-66.1,9.3-98.8,27.8c-3.3,1.9-6.8,4-10.1,6c-3.1,1.9-6.1,3.9-9.2,6
			c-19.3,13.1-38.4,29.2-57.4,48.8c-2.5,13.8,22.7,42.6,43.1,65.9c9.8,11.3,20,22.8,28.7,34.2c22.8,29.7,31.2,54.9,25.7,77.2
			c-4.9,19.9-21,36.4-47.9,48.9c-3.5,2.8-4.8,8.8-5.1,14.9c10.7-10.8,23.4-16.5,37.3-16.5c1,0,1.7,0.1,2.6,0.3
			c0.2-0.7,0.5-1.3,0.7-1.8c0.7-2.2,2-4.3,2.9-6.5c1.3-2.1,2.4-4.3,4.1-6.2c1.4-2,3.2-3.8,5-5.5c2-1.4,4.1-2.9,6.3-3.6
			c2.3-0.9,4.8-1.2,6.9-0.8c1.2,0.1,2.1,0.7,3,1c0.5,0.3,0.9,0.4,1.4,0.6l1.1,1c0.7,0.5,1.4,1,2,1.5c0.5,0.7,1,1.3,1.4,1.8
			c1,1.1,1.6,2.1,2.1,3.1c0.9,1.8,1.5,2.7,1.5,2.7s-0.7-0.8-2-2.4c-0.6-0.7-1.4-1.7-2.5-2.5c-0.5-0.6-1-0.9-1.6-1.5
			c-0.7-0.4-1.3-0.8-2.1-1.1l-1-0.6c-0.4-0.1-0.8-0.2-1.2-0.3c-0.8-0.1-1.6-0.5-2.5-0.3c-1.8,0-3.4,0.5-5,1.3
			c-1.7,1-3.1,2.4-4.5,3.8c-1.2,1.6-2.4,3.3-3.3,5.3c-1,1.7-1.7,3.8-2.4,5.7c-0.6,2.1-1.3,3.9-1.6,6c-0.4,2,1.1,13.7,1.1,13.7
			c0.8,3.8,1.4,8.2,2.1,13.2c1.3,10,3,22.8,6.4,32.6c9.5-7.6,17.7-18.5,24.1-27.1c6.7-9,11.4-15,17-16.9c0-1,0-2,0.1-3
			c0.1-2.8,0.6-5.9,1.2-9c0.7-3.1,1.6-6.3,3-9.6c1.2-3.2,3-6.4,5.1-9.5c2.3-2.9,4.9-5.9,8.4-7.9c3.3-2.2,7.4-3.1,11.3-3.1
			c3.9,0.4,7.3,1.5,10.5,3.2c2.7,1.5,5.6,3.6,7.8,5.6c2.2,2.1,4.1,4.4,5.3,6.7c2.7,4.7,3.5,9.1,3.8,12c0.3,3.1-0.1,4.7-0.1,4.7
			s0.1-1.7-0.5-4.6c-0.7-2.9-1.9-7.1-4.9-11c-1.5-2-3.4-4-5.6-5.6c-2.3-1.8-4.6-3-7.7-4.3c-2.7-1.2-5.7-1.7-8.6-1.6
			c-2.8,0.4-5.6,1.2-7.8,3.2c-2.3,1.5-4.1,4.2-5.5,6.7c-1.5,2.6-2.6,5.4-3.4,8.2c-0.7,2.9-1.1,5.7-1.4,8.4c-0.1,2.6-0.3,5.2-0.1,7.6
			c0,1.8,0.3,3.5,0.5,5.1c0.1,0.3,0.1,0.8,0.1,1.2c0.5,1.6,0.8,3.1,1.1,4.3c0.5,1.5,0.8,2.6,1.1,3.4c0,0,17.5,46.8,21,53.5
			c5.2-4.7,15.4-19.1,23.3-46.9l0.3-1.2l0.6-1c5.2-8.8,12.3-10.2,16.1-10.2c17.2,0,31.8,26.6,40.4,46.4c1.9-3.4,3.7-8,5-13.3
			c3.6-13.4,6.5-47.2,6.5-47.2c0-0.4,0.1-0.9,0-1.2c0.1-0.8,0-1.7-0.2-3c-0.2-1.3-0.4-2.6-0.9-4.1c-0.8-3-2.3-6.5-4.5-9.9
			c-0.1-0.1-0.1-0.1-0.1-0.1c-2.3-3.4-5.2-6.6-8.9-8.6c-3.6-2.2-7.9-2.9-11.6-1.5c-1.8,0.6-3.5,1.8-4.9,3.2
			c-1.4,1.2-2.7,2.8-3.6,4.3c-1,1.3-1.7,2.8-2.5,4.1c-0.6,1.4-1.2,2.5-1.6,3.5c-0.7,2-1.2,3.2-1.2,3.2s0.3-1.2,0.7-3.3
			c0.2-1.1,0.6-2.3,1-3.8c0.6-1.4,1-3.1,1.9-4.7c0.7-1.7,1.8-3.5,3.2-5.3c1.4-1.6,3.1-3.4,5.4-4.7c2.1-1.3,4.9-2.1,7.7-2.2
			c2.9-0.1,5.6,0.5,8.2,1.5c1.2,0.5,2.2,0.9,3.2,1.6c-3.5-13.1-8.7-25-15.5-34.3c-29.9-40.3-41.9-80.1-43.9-87.5
			c-0.6-1-1.4-2.5-2.5-4.5c-1.1-1.9-2.3-4.3-3.7-7.1c-0.4-0.6-0.8-1.5-1.2-2.1c-1.1-2.1-2.2-4.1-3.7-6.3c-1.7-3.1-4-6.2-6.3-9.5
			c-2.5-3.3-5-6.6-8.1-9.9c-1.4-1.7-3-3.4-4.7-4.8c-1.7-1.6-3.2-3.3-5.1-4.8c-3.6-2.9-7.3-6.1-11.4-8.6c-3.9-2.9-8.1-5.3-12.3-7.6
			c-2-1.3-4.2-2.2-6.3-3.2c-2.2-0.9-4.2-2-6.3-2.9c-4.2-1.9-8.5-3.2-12.5-4.8c-3.9-1.6-7.9-2.4-11.5-3.5c-3.6-1-6.8-2-9.9-2.5
			c-2.9-0.6-5.5-1.1-7.6-1.6c-4.3-0.9-6.8-1.4-6.8-1.4s2.5,0.2,6.9,0.5c2.2,0.2,4.9,0.5,7.9,0.7c3.1,0.2,6.5,0.9,10.2,1.5
			c3.7,0.7,7.8,1.1,12,2.2c4.2,1,8.7,1.9,13.3,3.3c2.2,0.8,4.5,1.5,6.9,2.2c2.3,0.8,4.7,1.6,7,2.6c4.6,1.9,9.4,3.9,13.9,6.5
			c4.7,2.2,9,5.1,13.3,7.9c2.1,1.4,4.1,3,6.1,4.5c2.1,1.5,4,3,5.8,4.7c3.8,3.1,7.1,6.6,10.3,9.9c3,3.3,5.9,6.5,8.2,9.7
			c2.5,3,4.4,6,6.4,8.5c1.7,2.5,3.2,4.6,4.5,6.4c0.3,0.6,0.7,1.1,1,1.6c4.4,0.3,11.9,0.7,21.1,0.7c39.8,0,69.4-7.3,83.9-20.3
			c2.7-2.5,4.9-5.1,6.5-7.9c0.1-0.1,0.2-0.1,0.3-0.3c1.4-2.6,2.4-5.4,3.1-8.5c2.5-13.1-2.6-30.2-15.5-51
			C1099.9,1009.7,1046.3,963,972.8,963z"/>
		<path class="st1" d="M1126.5,541.6c-21.9-15.2-63.3-38-91.1-52.2l-7.7-4l6.1-6.1c3.2-3.3,9.2-4.6,22-4.6c7.2,0,15.8,0.4,24,0.9
			c0.7,0,1.4,0,2.2,0.1c-34.1-16.4-112.4-34.6-167.6-47.6c-18.4-4.3-35.6-8.3-50.4-12c-10.5-2.6-22.3-4-35-4
			c-51.7,0-100.4,20.6-113.1,30.7c-0.5,0.3-0.9,0.8-1.3,1c30.7,6.6,59.2,13.2,85.7,19.9c186.1,47.2,268.8,96.6,298.5,114.3
			c0.3,0.2,0.6,0.3,0.9,0.5c-10.3-13.2-31.5-24.1-40.6-27.8l-29.3-12.2h31.7C1063,538.6,1094.7,538.6,1126.5,541.6z"/>
		<path class="st1" d="M434.5,586.6c-15.9-10.2-30.5-15.4-43.6-15.4c-28.5,0-46.3,26-54.2,57.5c-0.9,3.7-1.8,7.6-2.5,11.4
			c-0.6,4-1.2,8.1-1.6,12.1c-0.4,3.7-0.6,7.3-0.7,11L331,691L315,668.5c-15.4-21.6-36.9-46.4-66.4-46.4c-13.7,0-28.6,5.4-44,16
			c-56.6,38.7-27.3,235.9-17.9,256c7.9,16.7,5,55.5,0.8,84.3c5.6-9.5,12.8-24.5,22.4-45.2l6-13.1l9.6,10.9
			c7.4,8.4,14.9,33.6,19.9,57.2c4.3-12.4,6.7-30.6,4.9-60.3l-1.7-27.2l18,20.4c14.1,16.2,25.5,38.9,36.2,61.8
			c2.9-14.3,0.5-30.9-11-67.9l-7.2-23.3l20.9,12.6c10.4,6.2,23.1,19.6,32.5,30.5c0.7-7.8,4-18.3,0-27.6c-2.5-5.7-9.4-10.6-15.4-17.6
			c-14.9-17.5-34.5-41.3-51.8-66.8c-4.3-6.3-8.5-12.8-12.4-19.3c-4-6.4-7.5-13-10.9-19.4c-3.2-6.4-6.2-12.9-8.6-19
			c-2.4-6.2-4.4-12.2-5.6-17.8c-0.7-2.9-1.4-5.5-1.6-8.2c-0.2-1.3-0.3-2.6-0.6-3.8c0-1.3,0-2.5-0.1-3.6c-0.1-1.2-0.1-2.3-0.2-3.4
			c0.1-1.1,0.2-2.2,0.2-3.2c0.3-2,0.3-3.9,0.8-5.5c0.4-1.6,0.7-3.1,1-4.4c0.5-1.3,1-2.3,1.3-3.1c0.7-1.6,1-2.5,1-2.5
			s-0.3,0.9-0.9,2.5c-0.2,0.9-0.6,2-1,3.2c-0.2,1.2-0.5,2.7-0.7,4.3c-0.3,1.7-0.3,3.5-0.3,5.5c0,0.9,0,2,0,3.1
			c0.1,1,0.2,2.2,0.3,3.2c0.1,1.2,0.2,2.4,0.5,3.6c0.2,1.2,0.5,2.4,0.7,3.7c0.5,2.5,1.4,5.1,2.1,7.8c1.7,5.4,4.1,11.1,6.8,16.9
			c2.9,5.7,6.1,11.8,9.9,17.7c3.7,6.1,7.7,12.2,12.1,18.2c4.3,6.1,8.9,12,13.6,18c18.8,23.6,39.8,45.6,55.8,61.7
			c0.8,0.7,1.5,1.5,2.2,2.2c5.7,5.7,10.8,10.5,14.7,14.4l2,1.7c1.9,1.6,3.8,3.6,5.8,5.6c7.4,7.6,16.6,17.1,30.8,17.1
			c18.2,0,40.8-15.1,67.4-45.1c20.4-22.9,29-53.8,31.9-83.5c0.3-3.7,0.6-7.4,0.8-11.1c0.2-3.8,0.3-7.7,0.4-11.4
			c0.1-18.2-1.4-35-3.3-48.1C477.6,655.5,451.9,597.7,434.5,586.6z"/>
		<path class="st1" d="M1989.9,908.9c-14.6-33.5-22.6-30.6-56.6-18.1c-9,3.2-19.2,7.1-31.1,10.4c-52.3,15.2-207.7-36.8-263.3-66
			c-4.4-2.3-8.1-4.5-11.1-6.4c-2.4-1.6-4.5-3.2-6.1-4.4c-0.5-0.6-1.1-1.2-1.5-1.9c-3.4-5.2-6.7-9.6-10-13.6
			c-7-8.2-14.2-13.9-21.4-17.7c-13.7-7.3-27.8-7.7-41.6-5.2c-0.5,0.1-0.9,0.1-1.4,0.2c0.6,0.7,1.3,1.3,2,1.9
			c2.3,2.3,4.8,4.7,7.3,7.1c0.1,0.2,0.4,0.4,0.6,0.6c2.3,2.3,4.3,4.7,6.5,7.1c1,1.1,1.9,2.2,2.9,3.2c1.3,1.5,2.7,2.9,4,4.4
			c2.2,2.7,4.3,5.4,6.3,7.9c0.4,0.5,0.8,0.9,1.2,1.4c1.5,2,3.2,4,4.6,5.9c0.8,0.9,1.4,1.8,2.1,2.9c1,1.3,1.9,2.7,2.8,3.9
			c3.3,4.8,5.9,8.6,7.6,11.1c1.4,2,2.2,3.1,2.2,3.1s-1.5-1.5-4.2-4.2c-2-2-4.6-4.8-7.8-8c-1.7-1.7-3.4-3.6-5.4-5.4
			c-0.1-0.1-0.3-0.2-0.4-0.4c-2.2-1.9-4.5-4-6.9-6.1c-0.3-0.4-0.7-0.7-1.1-0.9c-2-1.8-4.1-3.7-6.3-5.6c-2.6-2.1-5.2-4.2-7.9-6.3
			c-1.4-1-2.7-2.1-4.1-3.2c-0.7-0.6-1.5-1.2-2.3-1.6c-0.5-0.5-1-0.9-1.6-1.2c-2.7-1.9-5.4-3.7-8-5.5c-1.6-1.2-3.1-2.2-4.7-3.2h-0.1
			c-0.3-0.2-0.6-0.4-1-0.7c-0.6-0.4-1.2-0.8-1.8-1.1c-0.4-0.2-0.7-0.4-1.1-0.7c-1.2-0.7-31.8-20.5-67.4-22.6
			c-5-0.2-10.1,0.7-15.1-0.1c-33.3-5.7-140.1,36.7-141.3,34.8c9.3-8.6,13.2-12.2,17.6-14.9c1.1-0.6,3.2-1.8,5.9-3.4
			c2.5-1.4,5.8-3.2,9.6-5.1c0.2-0.1,0.6-0.3,0.9-0.4c-7.1-7.7-14.3-15.2-21.8-22.6c-15-14.9-30.7-29.1-47-42.7
			c-1.2-0.9-2.4-1.9-3.5-2.9c-1.1-1-2.2-1.9-3.3-2.8c-4-3.4-8.2-6.7-12.3-9.8c-0.5-0.4-1.1-0.9-1.5-1.2c-2.2-1.7-4.4-3.4-6.6-5.1
			c-2.7-2.1-5.5-4.1-8.2-6.2c-228-170.1-536-228.4-539.8-229.1c-0.3-0.1-0.7-0.1-1-0.3C531,408.6,471,323.7,469.8,260.8
			c-0.9-51.8,35.3-94,99.5-115.7c83.1-28.2,339.6-19.8,589.5,33.7c-7.6-2.4-15.4-4.8-23.5-7.1c-9.2-2.7-18.7-5.5-28.5-8.4
			c-9.8-2.8-19.9-6-30.5-8.8c-10.5-2.7-21.3-5.6-32.4-8.6c-22.1-6.2-45.7-11.5-70.2-17.2c-6.1-1.4-12.3-3-18.6-4.3
			c-6.3-1.3-12.7-2.5-19.1-3.9c-12.8-2.5-25.8-5.5-39.1-7.8c-13.4-2.3-27-4.6-40.8-6.9c-6.8-1.3-13.8-2.2-20.9-3.1
			c-7-0.9-14.1-1.9-21.2-2.8c-57-7.1-117.8-11.6-180.2-8.4c-31.2,2-62.9,5-94,12.3c-31.1,7-62,17-90.5,32.1l-10.6,5.7
			c-3.6,1.8-6.8,4.3-10.2,6.4c-3.3,2.2-6.8,4.4-10.1,6.6l-9.4,7.5c-6.5,4.8-11.9,10.8-17.8,16.2c-2.9,2.8-5.3,5.9-8,8.9
			c-2.7,3-5.3,5.9-7.6,9.3l-6.9,9.7l-5.9,10.3c-2.1,3.4-3.6,7.1-5.2,10.7c-1.7,3.6-3.4,7.1-4.5,11c-5.6,14.9-8.5,30.6-8.7,46.4
			c-0.2,15.8,1.8,31.4,7.8,45.9l2,5.1l2.8,5.1l2.7,5.1c1,1.7,2.2,3.4,3.2,4.9c2.3,3.3,4.3,6.5,6.9,9.5c2.6,3,4.8,6.2,7.6,9
			c10.7,11.9,23.2,22,36.2,31.4c13,9.5,27,17.8,41.2,25.6c28.4,15.5,58.3,28.4,88.1,40.2c29.9,11.8,60,22.1,89.8,31.8
			c59.5,19.7,118.1,36.1,173.5,52.8c13.9,4.2,27.6,8.3,41.1,12.4c13.8,4.3,26.6,8.7,39.6,12.9c12.9,4.6,25.7,9.4,38,14.1
			c12.3,5.1,24.4,9.8,36,15.1c46.7,20.4,87.6,43.2,122.4,65.4c4.4,2.8,8.6,5.6,12.8,8.1c4.1,2.9,8.2,5.7,12.2,8.4
			c4,2.8,7.8,5.5,11.7,8c3.7,2.8,7.3,5.6,10.9,8.2c3.6,2.7,7.1,5.4,10.5,7.9c3.2,2.7,6.5,5.4,9.7,8c3.1,2.6,6.2,5.1,9.2,7.7
			c2.9,2.6,5.8,5.1,8.5,7.5c22.1,19.8,38.1,36.8,47.9,49.3c5.2,6,8.4,11.2,10.9,14.4c2.4,3.3,3.7,5,3.7,5l-1.9,1.4
			c0,0-1.4-1.6-4-4.8c-2.7-3-6.2-7.9-11.8-13.4c-10.6-11.5-27.2-27.6-50.1-45.7c-2.8-2.2-5.8-4.6-8.7-7c-3.1-2.3-6.3-4.6-9.6-7
			c-3.3-2.4-6.6-4.8-10-7.3c-3.5-2.5-7.1-4.8-10.8-7.3c-3.6-2.6-7.3-5.1-11.1-7.6c-3.9-2.5-7.8-5-11.9-7.5c-4-2.5-8-5.1-12.2-7.7
			c-4.2-2.5-8.6-5-12.9-7.5c-35.1-20.5-76.4-40.8-122.7-59.6c-11.5-4.8-23.5-9-35.7-13.8c-12.3-4.2-24.7-8.6-37.4-12.7
			c-12.9-3.9-26.4-8.2-39.5-12c-13.5-3.8-27.2-7.7-41.1-11.6c-27.8-7.6-56.4-15.7-85.6-24.2c-29.2-8.5-59-17.3-89.2-27.1
			c-30.2-10-60.6-20.8-91-33c-30.4-12.2-60.8-26.1-90.1-42.8c-14.7-8.3-29.2-17.4-43-27.8c-13.8-10.3-27.1-21.5-38.8-34.9
			c-11.7-13.3-21.8-28-28.5-45.6l-2.5-6.7c-0.6-2.2-1-4.1-1.6-6.1l-1.5-6.1l-0.3-1.4l-0.1-0.8l-0.2-1.7l-0.5-3.3
			c-0.6-4.4-1.3-8.9-1.3-13.4c-0.1-4.5-0.4-9-0.1-13.4c0.6-17.8,4.2-35.6,10.5-52.1c1.3-4.3,3.3-8.2,5.2-12.2c1.9-4,3.7-8.1,6-11.8
			l6.7-11.3l7.8-10.6c2.5-3.6,5.4-6.9,8.4-10.2c2.9-3.2,5.7-6.6,8.8-9.6c6.4-5.8,12.5-12.2,19.6-17.2l10.2-7.9
			c3.6-2.4,7.2-4.7,10.8-7c3.7-2.3,7.1-4.8,11-6.8l11.3-5.9c30.3-15.4,62.6-25.4,94.8-32.2c32.2-7.1,64.7-9.8,96.4-11.4
			c63.7-2.4,124.9,2.8,182.3,11.1c7.2,1,14.3,2.2,21.3,3.2c7.1,1.1,14.2,2.1,21.1,3.5c13.8,2.6,27.4,5.1,40.8,7.6
			c13.4,2.7,26.4,5.8,39.3,8.6c6.5,1.4,12.8,2.8,19.1,4.3c6.3,1.4,12.4,3.1,18.6,4.6c24.4,6.2,48,12,70.1,18.5
			c11.1,3.2,21.8,6.2,32.3,9.2c10.5,2.9,20.5,6.3,30.3,9.3c9.9,3.1,19.3,6,28.5,8.8c9.2,2.8,18,5.7,26.3,8.6
			c14.6,5,27.9,9.5,40.4,13.7c112.4,26.7,221.2,62.7,309.8,109c-72.7-57.9-204.8-137.7-362.6-199.5C962.2,24.4,683.2-46,425.6,38.5
			C288.4,83.3,207.1,151.8,184,241.8c-44.2,171.4,136.3,367.5,138,369.4c0.1,0.1,0.1,0.2,0.1,0.2c11.5-33.5,34-59,68.8-59
			c16.7,0,34.7,6.1,53.7,18.3c24.2,15.5,51.4,81.6,60.6,147.3c2.4,17.1,4.3,40,3,64.6c1.8,1.4,3.5,2.6,5.4,4.1
			c77,56.8,189.4,128.1,339.4,194.8c39.3-24.8,79.4-37.2,119.9-37.2c82,0,140.6,51.8,156.1,76.8c16,25.9,21.8,47.9,17.6,66.2
			c0.6,0.2,1.3,0.5,2,0.9c1.4,0.8,127.4,73.1,384.8,2.9c-57.2,4.4-146.9,13.1-160,13.7c-60.8,2.6-108.2-147.5-103-156.1
			c1.1-1.7,10,16.5,16.4,28.4c20.2,37.7,40.7,114.4,91.6,108.7c45.3-5,103.8-9.5,165.8-14.3c20.3-1.5,41.1-3.2,62.2-4.9
			c82.4-6.6,168.1-14.2,237.2-24.5c83.2-12.4,118-25.5,132.4-35c-6.9,0.5-13.2,0.8-19,0.8c-35.8,0-52.1-9.4-63.6-16.2
			c-8.3-4.9-11.1-6.5-18.3-3.7c-30.9,12.1-92.4,20.5-128.6,13.7c-10.9-2-19.1-4.9-27.1-7.6c-17.6-6.2-35.8-12.4-87.6-10.4
			c-48.7,3.8-83-1.1-106.8-8.8c-38.9-12.5-50-32.3-50.6-33.7c-7-14-18.9-24.3-33.7-30.2c-11.4-4.6-24.7-6.7-38.6-5.9
			c-7,0.3-14.2,1.4-21.4,3.3c-51,12.8-90.1-21.5-86.9-25c1.6-1.7,40.4,17.5,82.3,6.9c30-7.5,58.6-4.3,80.8,7.6
			c9.2,4.9,17.2,11.4,23.8,19.3c4,4.7,7.5,9.9,10.3,15.6c0.1,0.1,14.7,23.9,72.4,31.3c1.2,0.2,2.4,0.3,3.6,0.4
			c17.4,2,38.3,2.6,63.8,0.7c55.7-2.4,75.6,4.6,94.8,11.3c7.6,2.6,14.9,5.1,24.4,7c28.7,5.4,76.7-0.1,106.9-8.9
			c4.2-1.3,8-2.5,11.5-3.9c15.8-6.1,25.3-0.5,34.6,5c4.8,2.7,10.6,6.1,18.8,8.8c7.7,2.5,17.8,4.4,31.2,4.8
			c11.1,0.3,24.5-0.5,41.1-2.8c0.1,0,0.1,0,0.1,0c0.1,0,0.1,0,0.2,0c1.5-0.2,3.8-0.9,5.9-4.6C2005.6,972,2006.3,947.2,1989.9,908.9z
			 M1422.3,806.3c1.3-4,4.9-6.5,8.9-6.5c0.1,0,0.1,0,0.2,0c67.3,1.4,96.7,4.7,105.4,21.3c4.1,7.8,2.6,17-4.4,27.4
			c-2.2,3.4-6.8,7.4-16.1,7.4l0,0c-24,0-75.3-29-90.4-39.1C1422.6,814.6,1421,810.3,1422.3,806.3z"/>
		<path class="st1" d="M1522.3,840.7c0.9,0,1.4,0,1.9,0c4.7-7.4,4.7-11.1,4.3-11.9c-5.1-9.7-43.7-14-82.4-16
			C1475.5,827.6,1506.9,840.7,1522.3,840.7L1522.3,840.7z"/>
	</g>
</g>
<g id="Слой_4">
	<g>
		<path class="st2" d="M1409.8,757.3c-0.5,3.1-0.8,6.2-1.4,9.1c-0.5,2.2-1,4.4-1.7,6.5c19.8-7.8,44.6-15.2,71-17.4
			c-25.4-79.6-71.4-164.4-98.7-164.4c-2.6,0-5,0.9-7.5,2.6c-15.7,11.2-56.9,44.3-74.1,90.8c33.3,25.7,65,53.9,93.7,84.8
			c0.3-0.3,0.3-0.5,0.5-0.8c0.5-0.9,1-1.9,1.5-2.8c0.5-1.1,1-2.3,1.5-3.6c1-2.3,1.7-4.9,2.7-7.5c0.6-2.6,1.7-5.5,2.2-8.4
			c0.6-2.9,1.3-5.9,1.7-9c0.4-3,0.8-6.1,0.9-9.2c0.2-3.1,0.5-6.1,0.4-9c0-2.9,0.1-5.7,0-8.5c-0.1-2.6-0.2-5.2-0.4-7.6
			c-0.2-4.8-0.8-8.7-1-11.4c-0.3-2.8-0.5-4.4-0.5-4.4s0.4,1.5,1.2,4.2c0.8,2.7,2.1,6.4,3.3,11.2c0.6,2.4,1.1,4.9,1.8,7.6
			c0.6,2.7,1,5.6,1.6,8.6c0.6,2.9,0.9,6.1,1.3,9.3c0.4,3.1,0.6,6.4,0.7,9.7c0.2,3.3,0.1,6.6,0.1,9.9
			C1410.5,750.9,1410,754.2,1409.8,757.3z"/>
		<path class="st2" d="M1011.5,967.2c-33.1,0-66.1,9.3-98.8,27.8c-3.3,1.9-6.8,4-10.1,6c-3.1,1.9-6.1,3.9-9.2,6
			c-19.3,13.1-38.4,29.2-57.4,48.8c-2.5,13.8,22.7,42.6,43.1,65.9c9.8,11.3,20,22.8,28.7,34.2c22.8,29.7,31.2,54.9,25.7,77.2
			c-4.9,19.9-21,36.4-47.9,48.9c-3.5,2.8-4.8,8.8-5.1,14.9c10.7-10.8,23.4-16.5,37.3-16.5c1,0,1.7,0.1,2.6,0.3
			c0.2-0.7,0.5-1.3,0.7-1.8c0.7-2.2,2-4.3,2.9-6.5c1.3-2.1,2.4-4.3,4.1-6.2c1.4-2,3.2-3.8,5-5.5c2-1.4,4.1-2.9,6.3-3.6
			c2.3-0.9,4.8-1.2,6.9-0.8c1.2,0.1,2.1,0.7,3,1c0.5,0.3,0.9,0.4,1.4,0.6l1.1,1c0.7,0.5,1.4,1,2,1.5c0.5,0.7,1,1.3,1.4,1.8
			c1,1.1,1.6,2.1,2.1,3.1c0.9,1.8,1.5,2.7,1.5,2.7s-0.7-0.8-2-2.4c-0.6-0.7-1.4-1.7-2.5-2.5c-0.5-0.6-1-0.9-1.6-1.5
			c-0.7-0.4-1.3-0.8-2.1-1.1l-1-0.6c-0.4-0.1-0.8-0.2-1.2-0.3c-0.8-0.1-1.6-0.5-2.5-0.3c-1.8,0-3.4,0.5-5,1.3
			c-1.7,1-3.1,2.4-4.5,3.8c-1.2,1.6-2.4,3.3-3.3,5.3c-1,1.7-1.7,3.8-2.4,5.7c-0.6,2.1-1.3,3.9-1.6,6c-0.4,2,1.1,13.7,1.1,13.7
			c0.8,3.8,1.4,8.2,2.1,13.2c1.3,10,3,22.8,6.4,32.6c9.5-7.6,17.7-18.5,24.1-27.1c6.7-9,11.4-15,17-16.9c0-1,0-2,0.1-3
			c0.1-2.8,0.6-5.9,1.2-9c0.7-3.1,1.6-6.3,3-9.6c1.2-3.2,3-6.4,5.1-9.5c2.3-2.9,4.9-5.9,8.4-7.9c3.3-2.2,7.4-3.1,11.3-3.1
			c3.9,0.4,7.3,1.5,10.5,3.2c2.7,1.5,5.6,3.6,7.8,5.6c2.2,2.1,4.1,4.4,5.3,6.7c2.7,4.7,3.5,9.1,3.8,12c0.3,3.1-0.1,4.7-0.1,4.7
			s0.1-1.7-0.5-4.6c-0.7-2.9-1.9-7.1-4.9-11c-1.5-2-3.4-4-5.6-5.6c-2.3-1.8-4.6-3-7.7-4.3c-2.7-1.2-5.7-1.7-8.6-1.6
			c-2.8,0.4-5.6,1.2-7.8,3.2c-2.3,1.5-4.1,4.2-5.5,6.7c-1.5,2.6-2.6,5.4-3.4,8.2c-0.7,2.9-1.1,5.7-1.4,8.4c-0.1,2.6-0.3,5.2-0.1,7.6
			c0,1.8,0.3,3.5,0.5,5.1c0.1,0.3,0.1,0.8,0.1,1.2c0.5,1.6,0.8,3.1,1.1,4.3c0.5,1.5,0.8,2.6,1.1,3.4c0,0,17.5,46.8,21,53.5
			c5.2-4.7,15.4-19.1,23.3-46.9l0.3-1.2l0.6-1c5.2-8.8,12.3-10.2,16.1-10.2c17.2,0,31.8,26.6,40.4,46.4c1.9-3.4,3.7-8,5-13.3
			c3.6-13.4,6.5-47.2,6.5-47.2c0-0.4,0.1-0.9,0-1.2c0.1-0.8,0-1.7-0.2-3c-0.2-1.3-0.4-2.6-0.9-4.1c-0.8-3-2.3-6.5-4.5-9.9
			c-0.1-0.1-0.1-0.1-0.1-0.1c-2.3-3.4-5.2-6.6-8.9-8.6c-3.6-2.2-7.9-2.9-11.6-1.5c-1.8,0.6-3.5,1.8-4.9,3.2
			c-1.4,1.2-2.7,2.8-3.6,4.3c-1,1.3-1.7,2.8-2.5,4.1c-0.6,1.4-1.2,2.5-1.6,3.5c-0.7,2-1.2,3.2-1.2,3.2s0.3-1.2,0.7-3.3
			c0.2-1.1,0.6-2.3,1-3.8c0.6-1.4,1-3.1,1.9-4.7c0.7-1.7,1.8-3.5,3.2-5.3c1.4-1.6,3.1-3.4,5.4-4.7c2.1-1.3,4.9-2.1,7.7-2.2
			c2.9-0.1,5.6,0.5,8.2,1.5c1.2,0.5,2.2,0.9,3.2,1.6c-3.5-13.1-8.7-25-15.5-34.3c-29.9-40.3-41.9-80.1-43.9-87.5
			c-0.6-1-1.4-2.5-2.5-4.5c-1.1-1.9-2.3-4.3-3.7-7.1c-0.4-0.6-0.8-1.5-1.2-2.1c-1.1-2.1-2.2-4.1-3.7-6.3c-1.7-3.1-4-6.2-6.3-9.5
			c-2.5-3.3-5-6.6-8.1-9.9c-1.4-1.7-3-3.4-4.7-4.8c-1.7-1.6-3.2-3.3-5.1-4.8c-3.6-2.9-7.3-6.1-11.4-8.6c-3.9-2.9-8.1-5.3-12.3-7.6
			c-2-1.3-4.2-2.2-6.3-3.2c-2.2-0.9-4.2-2-6.3-2.9c-4.2-1.9-8.5-3.2-12.5-4.8c-3.9-1.6-7.9-2.4-11.5-3.5c-3.6-1-6.8-2-9.9-2.5
			c-2.9-0.6-5.5-1.1-7.6-1.6c-4.3-0.9-6.8-1.4-6.8-1.4s2.5,0.2,6.9,0.5c2.2,0.2,4.9,0.5,7.9,0.7c3.1,0.2,6.5,0.9,10.2,1.5
			c3.7,0.7,7.8,1.1,12,2.2c4.2,1,8.7,1.9,13.3,3.3c2.2,0.8,4.5,1.5,6.9,2.2c2.3,0.8,4.7,1.6,7,2.6c4.6,1.9,9.4,3.9,13.9,6.5
			c4.7,2.2,9,5.1,13.3,7.9c2.1,1.4,4.1,3,6.1,4.5c2.1,1.5,4,3,5.8,4.7c3.8,3.1,7.1,6.6,10.3,9.9c3,3.3,5.9,6.5,8.2,9.7
			c2.5,3,4.4,6,6.4,8.5c1.7,2.5,3.2,4.6,4.5,6.4c0.3,0.6,0.7,1.1,1,1.6c4.4,0.3,11.9,0.7,21.1,0.7c39.8,0,69.4-7.3,83.9-20.3
			c2.7-2.5,4.9-5.1,6.5-7.9c0.1-0.1,0.2-0.1,0.3-0.3c1.4-2.6,2.4-5.4,3.1-8.5c2.5-13.1-2.6-30.2-15.5-51
			C1138.6,1014,1084.9,967.2,1011.5,967.2z"/>
		<path class="st2" d="M1165.1,545.9c-21.9-15.2-63.3-38-91.1-52.2l-7.7-4l6.1-6.1c3.2-3.3,9.2-4.6,22-4.6c7.2,0,15.8,0.4,24,0.9
			c0.7,0,1.4,0,2.2,0.1c-34.1-16.4-112.4-34.6-167.6-47.6c-18.4-4.3-35.6-8.3-50.4-12c-10.5-2.6-22.3-4-35-4
			c-51.7,0-100.4,20.6-113.1,30.7c-0.5,0.3-0.9,0.8-1.3,1c30.7,6.6,59.2,13.2,85.7,19.9c186.1,47.2,268.8,96.6,298.5,114.3
			c0.3,0.2,0.6,0.3,0.9,0.5c-10.3-13.2-31.5-24.1-40.6-27.8l-29.3-12.2h31.7C1101.7,542.9,1133.4,542.9,1165.1,545.9z"/>
		<path class="st2" d="M473.2,590.9c-15.9-10.2-30.5-15.4-43.6-15.4c-28.5,0-46.3,26-54.2,57.5c-0.9,3.7-1.8,7.6-2.5,11.4
			c-0.6,4-1.2,8.1-1.6,12.1c-0.4,3.7-0.6,7.3-0.7,11l-0.9,27.7l-16.1-22.5c-15.4-21.6-36.9-46.4-66.4-46.4c-13.7,0-28.6,5.4-44,16
			c-56.6,38.7-27.3,235.9-17.9,256c7.9,16.7,5,55.5,0.8,84.3c5.6-9.5,12.8-24.5,22.4-45.2l6-13.1l9.6,10.9
			c7.4,8.4,14.9,33.6,19.9,57.2c4.3-12.4,6.7-30.6,4.9-60.3l-1.7-27.2l18,20.4c14.1,16.2,25.5,38.9,36.2,61.8
			c2.9-14.3,0.5-30.9-11-67.9l-7.2-23.3l20.9,12.6c10.4,6.2,23.1,19.6,32.5,30.5c0.7-7.8,4-18.3,0-27.6c-2.5-5.7-9.4-10.6-15.4-17.6
			c-14.9-17.5-34.5-41.3-51.8-66.8c-4.3-6.3-8.5-12.8-12.4-19.3c-4-6.4-7.5-13-10.9-19.4c-3.2-6.4-6.2-12.9-8.6-19
			c-2.4-6.2-4.4-12.2-5.6-17.8c-0.7-2.9-1.4-5.5-1.6-8.2c-0.2-1.3-0.3-2.6-0.6-3.8c0-1.3,0-2.5-0.1-3.6c-0.1-1.2-0.1-2.3-0.2-3.4
			c0.1-1.1,0.2-2.2,0.2-3.2c0.3-2,0.3-3.9,0.8-5.5c0.4-1.6,0.7-3.1,1-4.4c0.5-1.3,1-2.3,1.3-3.1c0.7-1.6,1-2.5,1-2.5
			s-0.3,0.9-0.9,2.5c-0.2,0.9-0.6,2-1,3.2c-0.2,1.2-0.5,2.7-0.7,4.3c-0.3,1.7-0.3,3.5-0.3,5.5c0,0.9,0,2,0,3.1
			c0.1,1,0.2,2.2,0.3,3.2c0.1,1.2,0.2,2.4,0.5,3.6c0.2,1.2,0.5,2.4,0.7,3.7c0.5,2.5,1.4,5.1,2.1,7.8c1.7,5.4,4.1,11.1,6.8,16.9
			c2.9,5.7,6.1,11.8,9.9,17.7c3.7,6.1,7.7,12.2,12.1,18.2c4.3,6.1,8.9,12,13.6,18c18.8,23.6,39.8,45.6,55.8,61.7
			c0.8,0.7,1.5,1.5,2.2,2.2c5.7,5.7,10.8,10.5,14.7,14.4l2,1.7c1.9,1.6,3.8,3.6,5.8,5.6c7.4,7.6,16.6,17.1,30.8,17.1
			c18.2,0,40.8-15.1,67.4-45.1c20.4-22.9,29-53.8,31.9-83.5c0.3-3.7,0.6-7.4,0.8-11.1c0.2-3.8,0.3-7.7,0.4-11.4
			c0.1-18.2-1.4-35-3.3-48.1C516.2,659.8,490.5,601.9,473.2,590.9z"/>
		<path class="st2" d="M2028.6,913.2c-14.6-33.5-22.6-30.6-56.6-18.1c-9,3.2-19.2,7.1-31.1,10.4c-52.3,15.2-207.7-36.8-263.3-66
			c-4.4-2.3-8.1-4.5-11.1-6.4c-2.4-1.6-4.5-3.2-6.1-4.4c-0.5-0.6-1.1-1.2-1.5-1.9c-3.4-5.2-6.7-9.6-10-13.6
			c-7-8.1-14.2-13.9-21.4-17.7c-13.7-7.3-27.8-7.7-41.6-5.2c-0.5,0.1-0.9,0.1-1.4,0.2c0.6,0.7,1.3,1.3,2,1.9
			c2.3,2.3,4.8,4.7,7.3,7.1c0.1,0.2,0.4,0.4,0.6,0.6c2.3,2.3,4.3,4.7,6.5,7.1c1,1.1,1.9,2.2,2.9,3.2c1.3,1.5,2.7,2.9,4,4.4
			c2.2,2.7,4.3,5.4,6.3,7.9c0.4,0.5,0.8,0.9,1.2,1.4c1.5,2,3.2,4,4.6,5.9c0.8,0.9,1.4,1.8,2.1,2.9c1,1.3,1.9,2.7,2.8,3.9
			c3.3,4.8,5.9,8.6,7.6,11.1c1.4,2,2.2,3.1,2.2,3.1s-1.5-1.5-4.2-4.2c-2-2-4.6-4.8-7.8-8c-1.7-1.7-3.4-3.6-5.4-5.4
			c-0.1-0.1-0.3-0.2-0.4-0.4c-2.2-1.9-4.5-4-6.9-6.1c-0.3-0.4-0.7-0.7-1.1-0.9c-2-1.8-4.1-3.7-6.3-5.6c-2.6-2.1-5.2-4.2-7.9-6.3
			c-1.4-1-2.7-2.1-4.1-3.2c-0.7-0.6-1.5-1.2-2.3-1.6c-0.5-0.5-1-0.9-1.6-1.2c-2.7-1.9-5.4-3.7-8-5.5c-1.6-1.2-3.1-2.2-4.7-3.2h-0.1
			c-0.3-0.2-0.6-0.4-1-0.7c-0.6-0.4-1.2-0.8-1.8-1.1c-0.4-0.2-0.7-0.4-1.1-0.7c-1.2-0.7-31.8-20.5-67.4-22.6
			c-5-0.2-10.1,0.7-15.1-0.1c-33.3-5.7-140.1,36.7-141.3,34.8c9.3-8.6,13.2-12.2,17.6-14.9c1.1-0.6,3.2-1.8,5.9-3.4
			c2.5-1.4,5.8-3.2,9.6-5.1c0.2-0.1,0.6-0.3,0.9-0.4c-7.1-7.7-14.3-15.2-21.8-22.6c-15-14.9-30.7-29.1-47-42.7
			c-1.2-0.9-2.4-1.9-3.5-2.9c-1.1-1-2.2-1.9-3.3-2.8c-4-3.4-8.2-6.7-12.3-9.8c-0.5-0.4-1.1-0.9-1.5-1.2c-2.2-1.7-4.4-3.4-6.6-5.1
			c-2.7-2.1-5.5-4.1-8.2-6.2c-228-170.1-536-228.4-539.8-229.1c-0.3-0.1-0.7-0.1-1-0.3C569.7,412.9,509.7,327.9,508.5,265
			c-0.9-51.8,35.3-94,99.5-115.7c83.1-28.2,339.6-19.8,589.5,33.7c-7.6-2.4-15.4-4.8-23.5-7.1c-9.2-2.7-18.7-5.5-28.5-8.4
			c-9.8-2.8-19.9-6-30.5-8.8c-10.5-2.7-21.3-5.6-32.4-8.6c-22.1-6.2-45.7-11.5-70.2-17.2c-6.1-1.4-12.3-3-18.6-4.3
			c-6.3-1.3-12.7-2.5-19.1-3.9c-12.8-2.5-25.8-5.5-39.1-7.8c-13.4-2.3-27-4.6-40.8-6.9c-6.8-1.3-13.8-2.2-20.9-3.1
			c-7-0.9-14.1-1.9-21.2-2.8c-57-7.1-117.8-11.6-180.2-8.4c-31.2,2-62.9,5-94,12.3c-31.1,7-62,17-90.5,32.1l-10.6,5.7
			c-3.6,1.8-6.8,4.3-10.2,6.4c-3.3,2.2-6.8,4.4-10.1,6.6l-9.4,7.5c-6.5,4.8-11.9,10.8-17.8,16.2c-2.9,2.8-5.3,5.9-8,8.9
			c-2.7,3-5.3,5.9-7.6,9.3l-6.9,9.7l-5.9,10.3c-2.1,3.4-3.6,7.1-5.2,10.7c-1.7,3.6-3.4,7.1-4.5,11c-5.6,14.9-8.5,30.6-8.7,46.4
			c-0.2,15.8,1.8,31.4,7.8,45.9l2,5.1l2.8,5.1l2.7,5.1c1,1.7,2.2,3.4,3.2,4.9c2.3,3.3,4.3,6.5,6.9,9.5c2.6,3,4.8,6.2,7.6,9
			c10.7,11.9,23.2,22,36.2,31.4c13,9.5,27,17.8,41.2,25.6c28.4,15.5,58.3,28.4,88.1,40.2c29.9,11.8,60,22.1,89.8,31.8
			c59.5,19.7,118.1,36.1,173.5,52.8c13.9,4.2,27.6,8.3,41.1,12.4c13.8,4.3,26.6,8.7,39.6,12.9c12.9,4.6,25.7,9.4,38,14.1
			c12.3,5.1,24.4,9.8,36,15.1c46.7,20.4,87.6,43.2,122.4,65.4c4.4,2.8,8.6,5.6,12.8,8.2c4.1,2.9,8.2,5.7,12.2,8.4
			c4,2.8,7.8,5.5,11.7,8c3.7,2.8,7.3,5.6,10.9,8.2c3.6,2.7,7.1,5.4,10.5,7.9c3.2,2.7,6.5,5.4,9.7,8c3.1,2.6,6.2,5.1,9.2,7.7
			c2.9,2.6,5.8,5.1,8.5,7.5c22.1,19.8,38.1,36.8,47.9,49.3c5.2,6,8.4,11.2,10.9,14.4c2.4,3.3,3.7,5,3.7,5l-1.9,1.4
			c0,0-1.4-1.6-4-4.8c-2.7-3-6.2-7.9-11.8-13.4c-10.6-11.5-27.2-27.6-50.1-45.7c-2.8-2.2-5.8-4.6-8.7-7c-3.1-2.3-6.3-4.6-9.6-7
			c-3.3-2.4-6.6-4.8-10-7.3c-3.5-2.5-7.1-4.8-10.8-7.3c-3.6-2.6-7.3-5.1-11.1-7.6c-3.9-2.5-7.8-5-11.9-7.5c-4-2.5-8-5.1-12.2-7.7
			c-4.2-2.5-8.6-5-12.9-7.5c-35.1-20.5-76.4-40.8-122.7-59.6c-11.5-4.8-23.5-9-35.7-13.8c-12.3-4.2-24.7-8.6-37.4-12.7
			c-12.9-3.9-26.4-8.2-39.5-12c-13.5-3.8-27.2-7.7-41.1-11.6c-27.8-7.6-56.4-15.7-85.6-24.2c-29.2-8.5-59-17.3-89.2-27.1
			c-30.2-10-60.6-20.8-91-33c-30.4-12.2-60.8-26.1-90.1-42.8c-14.7-8.3-29.2-17.4-43-27.8C426,411.6,412.7,400.4,401,387
			c-11.7-13.3-21.8-28-28.5-45.6l-2.5-6.7c-0.6-2.2-1-4.1-1.6-6.1l-1.5-6.1l-0.3-1.4l-0.1-0.8l-0.2-1.7l-0.5-3.3
			c-0.6-4.4-1.3-8.9-1.3-13.4c-0.1-4.5-0.4-9-0.1-13.4c0.6-17.8,4.2-35.6,10.5-52.1c1.3-4.3,3.3-8.2,5.2-12.2c1.9-4,3.7-8.1,6-11.8
			l6.7-11.3l7.8-10.6c2.5-3.6,5.4-6.9,8.4-10.2c2.9-3.2,5.7-6.6,8.8-9.6c6.4-5.8,12.5-12.2,19.6-17.2l10.2-7.9
			c3.6-2.4,7.2-4.7,10.8-7c3.7-2.3,7.1-4.8,11-6.8l11.3-5.9c30.3-15.4,62.6-25.4,94.8-32.2c32.2-7.1,64.7-9.8,96.4-11.4
			c63.7-2.4,124.9,2.8,182.3,11.1c7.2,1,14.3,2.2,21.3,3.2c7.1,1.1,14.2,2.1,21.1,3.5c13.8,2.6,27.4,5.1,40.8,7.6
			c13.4,2.7,26.4,5.8,39.3,8.6c6.5,1.4,12.8,2.8,19.1,4.3c6.3,1.4,12.4,3.1,18.6,4.6c24.4,6.2,48,12,70.1,18.5
			c11.1,3.2,21.8,6.2,32.3,9.2c10.5,2.9,20.5,6.3,30.3,9.3c9.9,3.1,19.3,6,28.5,8.8c9.2,2.8,18,5.7,26.3,8.6
			c14.6,5,27.9,9.5,40.4,13.7c112.4,26.7,221.2,62.7,309.8,109c-72.7-57.9-204.8-137.7-362.6-199.5
			C1000.8,28.7,721.9-41.7,464.3,42.7C327.1,87.6,245.8,156,222.6,246.1c-44.2,171.4,136.3,367.5,138,369.4c0.1,0.1,0.1,0.2,0.1,0.2
			c11.5-33.5,34-59,68.8-59c16.7,0,34.7,6.1,53.7,18.3c24.2,15.5,51.4,81.6,60.6,147.3c2.4,17.1,4.3,40,3,64.6
			c1.8,1.4,3.5,2.6,5.4,4.1c77,56.8,189.4,128.1,339.4,194.8c39.3-24.8,79.4-37.2,119.9-37.2c82,0,140.6,51.8,156.1,76.8
			c16,25.9,21.8,47.9,17.6,66.2c0.6,0.2,1.3,0.5,2,0.9c1.4,0.8,127.4,73.1,384.8,2.9c-57.2,4.4-146.9,13.1-160,13.7
			c-60.8,2.6-108.2-147.5-103-156.1c1.1-1.7,10,16.5,16.4,28.4c20.2,37.7,40.7,114.4,91.6,108.7c45.3-5,103.8-9.5,165.8-14.3
			c20.3-1.5,41.1-3.2,62.2-4.9c82.4-6.6,168.1-14.2,237.2-24.5c83.2-12.4,118-25.5,132.4-35c-6.9,0.5-13.2,0.8-19,0.8
			c-35.8,0-52.1-9.4-63.6-16.2c-8.3-4.9-11.1-6.5-18.3-3.7c-30.9,12.1-92.4,20.5-128.6,13.7c-10.9-2-19.1-4.9-27.1-7.6
			c-17.6-6.2-35.8-12.4-87.6-10.4c-48.7,3.8-83-1.1-106.8-8.8c-38.9-12.5-50-32.3-50.6-33.7c-7-14-18.9-24.3-33.7-30.2
			c-11.4-4.6-24.7-6.7-38.6-5.9c-7,0.3-14.2,1.4-21.4,3.3c-51,12.8-90.1-21.5-86.9-25c1.6-1.7,40.4,17.5,82.3,6.9
			c30-7.5,58.6-4.3,80.8,7.6c9.2,4.9,17.2,11.4,23.8,19.3c4,4.7,7.5,9.9,10.3,15.6c0.1,0.1,14.7,23.9,72.4,31.3
			c1.2,0.2,2.4,0.3,3.6,0.4c17.4,2,38.3,2.6,63.8,0.7c55.7-2.4,75.6,4.6,94.8,11.3c7.6,2.6,14.9,5.1,24.4,7
			c28.7,5.4,76.7-0.1,106.9-8.9c4.2-1.3,8-2.5,11.5-3.9c15.8-6.1,25.3-0.5,34.6,5c4.8,2.7,10.6,6.1,18.8,8.8
			c7.7,2.5,17.8,4.4,31.2,4.8c11.1,0.3,24.5-0.5,41.1-2.8c0.1,0,0.1,0,0.1,0c0.1,0,0.1,0,0.2,0c1.5-0.2,3.8-0.9,5.9-4.6
			C2044.3,976.2,2044.9,951.4,2028.6,913.2z M1460.9,810.6c1.3-4,4.9-6.5,8.9-6.5c0.1,0,0.1,0,0.2,0c67.3,1.4,96.7,4.7,105.4,21.3
			c4.1,7.8,2.6,17-4.4,27.4c-2.2,3.4-6.8,7.4-16.1,7.4l0,0c-24,0-75.3-29-90.4-39.1C1461.2,818.9,1459.7,814.5,1460.9,810.6z"/>
		<path class="st2" d="M1561,844.9c0.9,0,1.4,0,1.9,0c4.7-7.4,4.7-11.1,4.3-11.9c-5.1-9.7-43.7-14-82.4-16
			C1514.2,831.8,1545.6,844.9,1561,844.9L1561,844.9z"/>
	</g>
</g>
</svg>
