<svg xmlns="http://www.w3.org/2000/svg" viewBox="0 0 2353.33 2002.3"><defs><style>.cls-1{font-size:700px;fill:#5BFFDA;font-family:AnotherCastle3, AnotherCastle3;}.cls-2{fill:#5BFFDA;}.cls-3{fill:#FF48BE;}.cls-4{fill:#fff;}</style></defs><title>cayman</title><g id="Слой_2" data-name="Слой 2"><text class="cls-1" transform="translate(0 1575.91)">CAYMAN</text></g><g id="Слой_1" data-name="Слой 1"><path class="cls-2" d="M2609.24,2365.67c-.47,3.12-.8,6.22-1.43,9.09-.49,2.22-1,4.39-1.67,6.5,19.82-7.77,44.64-15.24,71-17.37-25.38-79.58-71.45-164.36-98.74-164.36a12.39,12.39,0,0,0-7.49,2.64c-15.67,11.25-56.87,44.33-74.07,90.85,33.28,25.7,65,53.94,93.71,84.81a2.76,2.76,0,0,0,.49-.84c.54-.95,1-1.88,1.5-2.83.52-1.13,1-2.34,1.55-3.56,1-2.27,1.74-4.91,2.68-7.54.63-2.64,1.68-5.46,2.16-8.39.65-2.91,1.28-5.92,1.68-9s.78-6.12.94-9.18a87.22,87.22,0,0,0,.4-9c0-2.91.13-5.73,0-8.5s-.23-5.24-.4-7.59c-.15-4.76-.76-8.67-1-11.44s-.48-4.39-.48-4.39.38,1.52,1.18,4.18,2.14,6.45,3.29,11.16c.55,2.36,1.11,4.89,1.8,7.58s1,5.61,1.6,8.62.9,6.12,1.29,9.28a87.5,87.5,0,0,1,.71,9.75c.25,3.33.08,6.62.08,9.88S2609.49,2362.57,2609.24,2365.67Z" transform="translate(-1090.27 -1607.53)"/><path class="cls-2" d="M2211,2575.6c-33.09,0-66.13,9.31-98.82,27.76-3.31,1.94-6.75,4-10.09,6-3.09,1.87-6.14,3.9-9.23,6a373.08,373.08,0,0,0-57.43,48.76c-2.49,13.84,22.73,42.64,43.12,65.85,9.79,11.29,20,22.79,28.68,34.21,22.78,29.66,31.21,54.9,25.7,77.16-4.92,19.95-21,36.42-47.89,48.93-3.48,2.77-4.84,8.81-5.09,14.92,10.67-10.81,23.42-16.46,37.31-16.46a11.38,11.38,0,0,1,2.57.32,14.53,14.53,0,0,1,.73-1.79,65.17,65.17,0,0,1,2.91-6.49,41.23,41.23,0,0,1,4.07-6.21,35.37,35.37,0,0,1,5-5.52,23.48,23.48,0,0,1,6.35-3.61,13.19,13.19,0,0,1,6.93-.8,15.43,15.43,0,0,1,3,1,6.76,6.76,0,0,0,1.44.61l1.13,1c.65.53,1.43,1,2,1.55.49.66,1,1.27,1.43,1.8a13.9,13.9,0,0,1,2.1,3.06c.94,1.83,1.48,2.73,1.48,2.73s-.71-.8-2-2.4a13.89,13.89,0,0,0-2.47-2.54,15.56,15.56,0,0,0-1.58-1.47,14.57,14.57,0,0,0-2.09-1.08l-1-.6c-.43-.1-.81-.25-1.2-.33a5.94,5.94,0,0,0-2.47-.28,10.93,10.93,0,0,0-5,1.31,19.36,19.36,0,0,0-4.48,3.82,30.68,30.68,0,0,0-3.34,5.26,34.84,34.84,0,0,0-2.37,5.7,57,57,0,0,0-1.62,6c-.38,2,1.06,13.65,1.06,13.65.8,3.76,1.43,8.18,2.14,13.17,1.27,10,3,22.78,6.45,32.58,9.46-7.59,17.74-18.55,24.1-27.07,6.75-9,11.39-15,17-16.91,0-1,0-2,.07-3a73.87,73.87,0,0,1,1.18-9,64.05,64.05,0,0,1,3-9.6,48.67,48.67,0,0,1,5.09-9.52,30.4,30.4,0,0,1,8.42-7.91,20.42,20.42,0,0,1,11.27-3.1,27,27,0,0,1,10.48,3.2,43.77,43.77,0,0,1,7.76,5.59,28.46,28.46,0,0,1,5.32,6.74,29.57,29.57,0,0,1,3.84,12,19,19,0,0,1-.07,4.75,22.79,22.79,0,0,0-.47-4.61,28.14,28.14,0,0,0-4.94-11,26.9,26.9,0,0,0-5.55-5.61,31.47,31.47,0,0,0-7.74-4.28,19.54,19.54,0,0,0-8.61-1.6,14,14,0,0,0-7.79,3.15c-2.28,1.55-4.05,4.22-5.53,6.72a39,39,0,0,0-3.37,8.25,70.06,70.06,0,0,0-1.43,8.37,63,63,0,0,0-.14,7.59,48.46,48.46,0,0,0,.47,5.08,5.76,5.76,0,0,1,.14,1.18c.49,1.63.8,3.1,1.11,4.33.5,1.45.83,2.58,1.15,3.38,0,0,17.49,46.78,21,53.47,5.25-4.75,15.37-19.11,23.29-46.86l.33-1.19.56-1c5.22-8.85,12.33-10.21,16.05-10.21,17.18,0,31.85,26.6,40.4,46.41a57.72,57.72,0,0,0,5-13.27c3.58-13.4,6.52-47.21,6.52-47.21a6.85,6.85,0,0,0,0-1.22,13.75,13.75,0,0,0-.17-3,21.76,21.76,0,0,0-.87-4.14,35.18,35.18,0,0,0-4.54-9.94l-.09-.09a26.16,26.16,0,0,0-8.89-8.62,12.89,12.89,0,0,0-16.57,1.7,21.17,21.17,0,0,0-3.64,4.33,32.3,32.3,0,0,0-2.45,4.09c-.64,1.37-1.2,2.5-1.57,3.5-.73,2-1.22,3.15-1.22,3.15s.28-1.23.73-3.27a39.12,39.12,0,0,1,1-3.8c.57-1.36,1-3.06,1.88-4.75a24.52,24.52,0,0,1,3.21-5.33,18.84,18.84,0,0,1,5.41-4.69,16.1,16.1,0,0,1,7.73-2.22,21.34,21.34,0,0,1,8.18,1.47,21.69,21.69,0,0,1,3.25,1.59c-3.48-13.08-8.66-25-15.48-34.31-29.94-40.33-41.94-80.11-43.94-87.49-.56-1-1.44-2.45-2.54-4.52s-2.31-4.33-3.74-7.11c-.41-.63-.8-1.47-1.18-2.13a71.85,71.85,0,0,0-3.69-6.31c-1.72-3.06-4-6.21-6.26-9.49a122.89,122.89,0,0,0-8.13-9.95,39.67,39.67,0,0,0-4.7-4.81c-1.68-1.59-3.25-3.3-5.08-4.8a112.84,112.84,0,0,0-11.39-8.61,98.08,98.08,0,0,0-12.33-7.63,57.89,57.89,0,0,0-6.33-3.19c-2.16-.89-4.21-2-6.3-2.91-4.21-1.89-8.5-3.21-12.48-4.77a107,107,0,0,0-11.46-3.47c-3.6-1-6.84-2-9.88-2.54s-5.49-1.14-7.63-1.56c-4.28-.9-6.78-1.38-6.78-1.38s2.5.19,6.85.48c2.24.23,4.87.48,7.86.66s6.47.94,10.21,1.46,7.82,1.08,12,2.16,8.75,1.87,13.29,3.34c2.21.75,4.52,1.5,6.92,2.21s4.69,1.6,7,2.64a129.33,129.33,0,0,1,13.91,6.46,115.64,115.64,0,0,1,13.3,7.89c2.14,1.41,4.14,3,6.11,4.52a68.59,68.59,0,0,1,5.82,4.71,119.17,119.17,0,0,1,10.26,9.94,122.37,122.37,0,0,1,8.19,9.7c2.46,3,4.44,6,6.38,8.52,1.67,2.54,3.15,4.61,4.47,6.44a11.85,11.85,0,0,0,1,1.56c4.38.33,11.86.66,21.06.66,39.8,0,69.38-7.26,83.87-20.28a31.93,31.93,0,0,0,6.5-7.91c.09-.1.19-.1.26-.3a31.22,31.22,0,0,0,3.11-8.47c2.52-13.08-2.64-30.15-15.51-51C2338,2622.38,2284.41,2575.6,2211,2575.6Z" transform="translate(-1090.27 -1607.53)"/><path class="cls-2" d="M2364.61,2154.28c-21.89-15.19-63.33-38-91.08-52.18l-7.74-4,6.14-6.11c3.22-3.33,9.23-4.56,22-4.56,7.16,0,15.77.41,24,.88a15.38,15.38,0,0,1,2.17.11c-34.08-16.39-112.35-34.65-167.64-47.59-18.41-4.28-35.63-8.32-50.43-12a147.48,147.48,0,0,0-35-4c-51.72,0-100.41,20.57-113.07,30.73-.48.34-.95.77-1.28,1,30.74,6.59,59.21,13.23,85.69,19.92,186.11,47.2,268.83,96.57,298.51,114.26.26.15.56.34.86.52-10.33-13.18-31.51-24.14-40.57-27.84l-29.28-12.2h31.74C2301.19,2151.28,2332.84,2151.28,2364.61,2154.28Z" transform="translate(-1090.27 -1607.53)"/><path class="cls-2" d="M1672.69,2199.25c-15.9-10.18-30.55-15.35-43.61-15.35-28.47,0-46.27,26-54.24,57.48-.95,3.71-1.82,7.58-2.46,11.43-.65,4-1.22,8.06-1.62,12.14-.4,3.67-.61,7.35-.71,11l-.87,27.67-16.07-22.5c-15.42-21.59-36.91-46.36-66.44-46.36-13.74,0-28.56,5.37-44,16-56.58,38.69-27.28,235.86-17.91,256,7.86,16.67,5,55.54.79,84.25,5.65-9.52,12.8-24.47,22.36-45.18l6-13.08,9.55,10.86c7.39,8.43,14.88,33.57,19.88,57.19,4.31-12.43,6.69-30.59,4.87-60.25l-1.69-27.21,18,20.45c14.12,16.19,25.47,38.86,36.19,61.84,2.95-14.31.48-30.87-11-67.88l-7.25-23.28,20.92,12.56c10.43,6.21,23.09,19.62,32.48,30.51.69-7.82,4-18.26,0-27.59-2.47-5.73-9.39-10.62-15.37-17.6-14.92-17.5-34.5-41.27-51.77-66.83-4.28-6.31-8.55-12.76-12.43-19.31-4-6.39-7.53-13-10.89-19.4s-6.21-12.89-8.59-19a131.35,131.35,0,0,1-5.64-17.84,50.8,50.8,0,0,1-1.6-8.24c-.17-1.27-.31-2.55-.56-3.76,0-1.27,0-2.46-.07-3.64s-.09-2.34-.16-3.42.23-2.17.23-3.21a36.86,36.86,0,0,1,.8-5.46c.4-1.59.71-3.1,1-4.37s1-2.31,1.29-3.11c.71-1.6,1-2.49,1-2.49s-.33.9-.87,2.54c-.23.85-.56,2-1,3.19-.23,1.23-.47,2.73-.7,4.33a30.78,30.78,0,0,0-.31,5.47v3.12c.07,1,.22,2.17.31,3.24s.23,2.36.47,3.59.49,2.4.73,3.7c.49,2.45,1.36,5.09,2.14,7.78a141.55,141.55,0,0,0,6.75,16.89c2.87,5.74,6.14,11.77,9.86,17.74s7.74,12.15,12.1,18.22,8.92,12,13.62,18c18.78,23.62,39.78,45.56,55.85,61.66a30.37,30.37,0,0,1,2.22,2.22c5.75,5.7,10.75,10.54,14.73,14.35l2,1.7c1.86,1.59,3.84,3.57,5.81,5.64,7.42,7.62,16.62,17.14,30.79,17.14,18.16,0,40.83-15.12,67.39-45.1,20.36-22.87,29-53.75,31.92-83.5.31-3.71.61-7.39.77-11.15s.33-7.68.4-11.44a335.76,335.76,0,0,0-3.25-48.11C1715.74,2268.15,1690,2210.29,1672.69,2199.25Z" transform="translate(-1090.27 -1607.53)"/><path class="cls-2" d="M3228,2521.57c-14.56-33.52-22.6-30.6-56.58-18.12-9,3.24-19.21,7.05-31.11,10.41-52.33,15.24-207.7-36.81-263.33-66-4.38-2.31-8.1-4.48-11.15-6.45a73.37,73.37,0,0,1-6.06-4.42,12,12,0,0,1-1.47-1.88,144.78,144.78,0,0,0-10-13.64c-7-8.15-14.17-13.93-21.37-17.7-13.69-7.3-27.8-7.72-41.63-5.19-.48.06-.95.11-1.41.2.61.66,1.34,1.27,2,1.93,2.3,2.31,4.77,4.66,7.25,7.11.14.18.37.36.55.56,2.28,2.26,4.34,4.65,6.5,7.05,1,1.1,1.91,2.17,2.94,3.21,1.3,1.5,2.7,2.91,4,4.41,2.2,2.69,4.31,5.37,6.29,7.91.41.48.75.94,1.22,1.41,1.51,2,3.15,4,4.6,5.89a18,18,0,0,1,2.06,2.87c1,1.33,1.9,2.73,2.77,3.87,3.29,4.81,5.91,8.65,7.57,11.1,1.37,2,2.17,3.07,2.17,3.07s-1.52-1.47-4.16-4.24c-2-2-4.58-4.76-7.81-8-1.65-1.68-3.41-3.62-5.39-5.42a1.35,1.35,0,0,1-.4-.37c-2.23-1.93-4.54-4-6.91-6.11a7.84,7.84,0,0,0-1.07-.94c-2-1.84-4.12-3.74-6.27-5.55-2.64-2.08-5.25-4.19-7.95-6.32-1.39-1-2.7-2.07-4.12-3.15a21.42,21.42,0,0,0-2.25-1.64,12.64,12.64,0,0,0-1.58-1.23c-2.7-1.87-5.41-3.67-8-5.47-1.61-1.17-3.14-2.2-4.71-3.18h-.09c-.32-.2-.63-.38-1-.67-.6-.37-1.24-.8-1.78-1.13a6.78,6.78,0,0,1-1.11-.66c-1.19-.66-31.81-20.52-67.38-22.56-5-.22-10.12.72-15.06-.13-33.34-5.73-140.08,36.67-141.27,34.8,9.3-8.58,13.19-12.2,17.58-14.93,1.1-.65,3.15-1.82,5.88-3.39,2.54-1.44,5.81-3.18,9.63-5.12.23-.14.57-.28.86-.43-7.05-7.71-14.31-15.2-21.77-22.59-15-14.88-30.73-29.08-47-42.69-1.2-.94-2.35-1.94-3.53-2.88s-2.22-1.93-3.32-2.77c-4-3.38-8.21-6.65-12.35-9.83-.48-.43-1.05-.86-1.49-1.23-2.23-1.68-4.39-3.39-6.61-5.09-2.72-2.11-5.5-4.14-8.22-6.19-228-170.12-536-228.44-539.77-229.1a4.11,4.11,0,0,1-1-.27c-165.16-49.38-225.22-134.29-226.37-197.22-.94-51.81,35.35-94,99.55-115.7,83.15-28.2,339.58-19.82,589.46,33.65-7.56-2.41-15.37-4.8-23.47-7.06-9.17-2.72-18.71-5.49-28.5-8.38s-19.88-6-30.45-8.85-21.32-5.65-32.4-8.56c-22.12-6.16-45.66-11.48-70.16-17.24-6.11-1.41-12.33-3-18.61-4.33s-12.66-2.54-19.11-3.86c-12.8-2.53-25.85-5.46-39.14-7.81s-27-4.61-40.81-6.93c-6.82-1.26-13.83-2.2-20.92-3.1s-14.1-1.94-21.24-2.84c-57-7.15-117.76-11.62-180.19-8.41-31.19,2-62.86,5-94,12.28-31.11,7-62,17-90.51,32.06l-10.6,5.74a113.66,113.66,0,0,0-10.19,6.45c-3.34,2.21-6.8,4.37-10.1,6.63l-9.41,7.48c-6.5,4.76-11.93,10.78-17.82,16.16-2.87,2.81-5.31,5.92-8,8.93a85,85,0,0,0-7.55,9.32l-6.94,9.75-5.89,10.31c-2.14,3.39-3.58,7.15-5.25,10.74a82.71,82.71,0,0,0-4.55,11,139.32,139.32,0,0,0-8.73,46.41c-.23,15.81,1.81,31.4,7.79,45.85l2,5.07,2.8,5.08,2.68,5.08c1,1.7,2.16,3.39,3.2,4.91a98.22,98.22,0,0,0,6.92,9.49c2.57,3,4.78,6.22,7.65,9,10.66,11.87,23.16,22,36.19,31.43a374.72,374.72,0,0,0,41.21,25.62c28.41,15.54,58.26,28.43,88.13,40.2s60,22.12,89.83,31.77c59.54,19.72,118.14,36.06,173.51,52.77,13.86,4.18,27.56,8.27,41.07,12.36,13.77,4.29,26.57,8.7,39.61,12.94,12.88,4.62,25.7,9.42,38,14.13,12.26,5.12,24.36,9.83,36,15.06a902,902,0,0,1,122.42,65.37c4.38,2.78,8.61,5.61,12.8,8.15q6.21,4.39,12.17,8.43c4,2.77,7.79,5.47,11.7,8,3.67,2.83,7.32,5.61,10.89,8.24s7.08,5.38,10.52,7.91c3.25,2.72,6.52,5.42,9.7,8s6.19,5.12,9.23,7.72,5.81,5.08,8.52,7.53c22.12,19.82,38.1,36.77,47.89,49.32,5.15,6,8.44,11.21,10.9,14.45s3.67,5,3.67,5l-1.91,1.41s-1.39-1.64-4-4.8-6.21-7.9-11.77-13.41c-10.59-11.53-27.2-27.61-50.13-45.75-2.78-2.22-5.81-4.57-8.75-7-3.11-2.31-6.32-4.57-9.55-7s-6.62-4.8-10-7.29-7.13-4.8-10.76-7.25-7.34-5.08-11.06-7.62c-3.9-2.49-7.79-5-11.89-7.53s-8-5.14-12.24-7.72-8.56-5-12.94-7.54c-35.09-20.5-76.39-40.75-122.71-59.57-11.51-4.76-23.53-9-35.7-13.76-12.28-4.22-24.67-8.56-37.39-12.75-12.87-3.91-26.43-8.24-39.47-12-13.54-3.81-27.19-7.68-41.12-11.58-27.77-7.63-56.43-15.68-85.62-24.24s-59-17.31-89.19-27.12c-30.15-10-60.55-20.79-91-33s-60.79-26.12-90.13-42.79a384.26,384.26,0,0,1-43-27.76c-13.77-10.26-27.11-21.46-38.81-34.88s-21.81-28-28.54-45.64l-2.5-6.69c-.64-2.16-1-4.15-1.6-6.11l-1.48-6.12-.33-1.41-.11-.8-.22-1.69-.46-3.34a94.54,94.54,0,0,1-1.29-13.38c-.07-4.47-.45-9-.07-13.44a159.32,159.32,0,0,1,10.52-52.06c1.31-4.28,3.34-8.19,5.15-12.24a109.93,109.93,0,0,1,6-11.82l6.68-11.33,7.79-10.64a101.3,101.3,0,0,1,8.38-10.18c2.94-3.18,5.74-6.63,8.82-9.63,6.43-5.8,12.52-12.2,19.58-17.19l10.17-7.9c3.6-2.4,7.25-4.66,10.83-7s7.15-4.84,11-6.76l11.3-5.93c30.33-15.44,62.62-25.43,94.84-32.2,32.22-7.11,64.67-9.8,96.42-11.39,63.65-2.35,124.92,2.77,182.34,11.1,7.18,1,14.33,2.16,21.33,3.15s14.19,2.12,21.11,3.53c13.77,2.55,27.44,5.08,40.78,7.62,13.44,2.74,26.43,5.75,39.3,8.56q9.7,2.14,19.11,4.25c6.26,1.41,12.4,3.1,18.64,4.62,24.41,6.21,48,12,70.06,18.55,11.08,3.2,21.82,6.21,32.29,9.22s20.55,6.3,30.33,9.32,19.32,6,28.45,8.85,18,5.66,26.34,8.58c14.59,5,27.93,9.51,40.36,13.74,112.4,26.73,221.24,62.74,309.8,109-72.72-57.85-204.77-137.67-362.61-199.52-188.65-73.89-467.59-144.31-725.2-59.88-137.22,44.85-218.52,113.34-241.66,203.37-44.15,171.43,136.29,367.47,138,369.45.07.1.15.18.15.24,11.46-33.52,34-59,68.81-59,16.66,0,34.68,6.12,53.66,18.27,24.22,15.53,51.45,81.62,60.6,147.31a340,340,0,0,1,3,64.58c1.79,1.37,3.55,2.64,5.38,4.09,77,56.81,189.36,128.08,339.38,194.78,39.33-24.8,79.41-37.23,119.91-37.23,82,0,140.57,51.77,156.1,76.81,16,25.89,21.79,47.92,17.58,66.18a9.2,9.2,0,0,1,2,.88c1.39.8,127.39,73.1,384.81,2.93-57.16,4.41-146.89,13.08-160,13.68-60.82,2.64-108.21-147.51-103-156.07,1.14-1.71,10,16.47,16.4,28.38,20.19,37.71,40.66,114.43,91.65,108.68,45.28-5,103.83-9.47,165.76-14.3,20.32-1.52,41.14-3.21,62.15-4.85,82.44-6.59,168.11-14.17,237.24-24.52,83.22-12.43,118-25.53,132.42-35-6.86.52-13.16.75-19,.75-35.82,0-52.05-9.42-63.63-16.2-8.3-4.9-11.08-6.51-18.31-3.67-30.91,12.13-92.44,20.47-128.63,13.74-10.92-2-19.11-4.89-27.07-7.63-17.6-6.21-35.82-12.43-87.6-10.44-48.69,3.76-83-1.13-106.85-8.76-38.89-12.52-50-32.28-50.65-33.7-7-14-18.86-24.29-33.69-30.17a89.28,89.28,0,0,0-38.64-5.88,98.27,98.27,0,0,0-21.42,3.3c-51,12.84-90.13-21.46-86.95-25,1.59-1.7,40.44,17.5,82.34,6.86,30-7.52,58.55-4.33,80.83,7.58a82,82,0,0,1,23.77,19.26,77.32,77.32,0,0,1,10.35,15.57c.09.14,14.66,23.94,72.42,31.35a29.91,29.91,0,0,0,3.55.42c17.35,2,38.34,2.55,63.8.66,55.7-2.36,75.6,4.62,94.85,11.29a166.16,166.16,0,0,0,24.35,7c28.71,5.38,76.67-.14,106.91-8.89,4.23-1.27,8-2.5,11.46-3.92,15.76-6.11,25.33-.52,34.63,5a94,94,0,0,0,18.76,8.76c7.72,2.54,17.75,4.43,31.19,4.8,11.08.33,24.52-.46,41.07-2.82h.24c1.5-.18,3.81-.94,5.89-4.62C3243.78,2584.63,3244.42,2559.79,3228,2521.57ZM2660.41,2419a9.29,9.29,0,0,1,8.91-6.51h.22c67.25,1.38,96.74,4.67,105.43,21.33,4.08,7.81,2.62,17-4.39,27.44-2.21,3.38-6.82,7.39-16.05,7.39h0c-24,0-75.33-29-90.39-39.07A9.46,9.46,0,0,1,2660.41,2419Z" transform="translate(-1090.27 -1607.53)"/><path class="cls-2" d="M2760.48,2453.31h1.92c4.7-7.43,4.7-11.1,4.29-11.91-5.09-9.65-43.68-14-82.35-16,29.35,14.78,60.76,27.86,76.14,27.86Z" transform="translate(-1090.27 -1607.53)"/></g><g id="Слой_3" data-name="Слой 3"><path class="cls-3" d="M2473.07,2360.56c-.47,3.12-.8,6.22-1.43,9.09-.49,2.22-1,4.39-1.67,6.5,19.82-7.77,44.64-15.24,71-17.37-25.38-79.58-71.45-164.36-98.74-164.36a12.39,12.39,0,0,0-7.49,2.64c-15.67,11.25-56.87,44.33-74.07,90.85,33.28,25.7,65,53.94,93.71,84.81a2.76,2.76,0,0,0,.49-.84c.54-.95,1-1.88,1.5-2.83.52-1.13,1-2.34,1.55-3.56,1-2.27,1.74-4.91,2.68-7.54.63-2.64,1.68-5.46,2.16-8.39.65-2.91,1.28-5.92,1.68-9s.78-6.12.94-9.18a87.22,87.22,0,0,0,.4-9c0-2.91.13-5.73,0-8.5s-.23-5.24-.4-7.59c-.15-4.76-.76-8.67-1-11.44s-.48-4.39-.48-4.39.38,1.52,1.18,4.18,2.14,6.45,3.29,11.16c.55,2.36,1.11,4.89,1.8,7.58s1,5.61,1.6,8.62.9,6.12,1.29,9.28a87.5,87.5,0,0,1,.71,9.75c.25,3.33.08,6.62.08,9.88S2473.32,2357.47,2473.07,2360.56Z" transform="translate(-1090.27 -1607.53)"/><path class="cls-3" d="M2074.81,2570.5c-33.09,0-66.13,9.31-98.82,27.76-3.31,1.94-6.75,4-10.09,6-3.09,1.87-6.14,3.9-9.23,6a373.08,373.08,0,0,0-57.43,48.76c-2.49,13.84,22.73,42.64,43.12,65.85,9.79,11.29,20,22.79,28.68,34.21,22.78,29.66,31.21,54.9,25.7,77.16-4.92,19.95-21,36.42-47.89,48.93-3.48,2.77-4.84,8.81-5.09,14.92,10.67-10.81,23.42-16.46,37.31-16.46a11.38,11.38,0,0,1,2.57.32,14.53,14.53,0,0,1,.73-1.79,65.17,65.17,0,0,1,2.91-6.49,41.23,41.23,0,0,1,4.07-6.21,35.37,35.37,0,0,1,5-5.52,23.48,23.48,0,0,1,6.35-3.61,13.19,13.19,0,0,1,6.93-.8,15.43,15.43,0,0,1,3,1,6.76,6.76,0,0,0,1.44.61l1.13,1c.65.53,1.43,1,2,1.55.49.66,1,1.27,1.43,1.8a13.9,13.9,0,0,1,2.1,3.06c.94,1.83,1.48,2.73,1.48,2.73s-.71-.8-2-2.4a13.89,13.89,0,0,0-2.47-2.54,15.56,15.56,0,0,0-1.58-1.47,14.57,14.57,0,0,0-2.09-1.08l-1-.6c-.43-.1-.81-.25-1.2-.33a5.94,5.94,0,0,0-2.47-.28,10.93,10.93,0,0,0-5,1.31,19.36,19.36,0,0,0-4.48,3.82,30.68,30.68,0,0,0-3.34,5.26,34.84,34.84,0,0,0-2.37,5.7,57,57,0,0,0-1.62,6c-.38,2,1.06,13.65,1.06,13.65.8,3.76,1.43,8.18,2.14,13.17,1.27,10,3,22.78,6.45,32.58,9.46-7.59,17.74-18.55,24.1-27.07,6.75-9,11.39-15,17-16.91,0-1,0-2,.07-3a73.87,73.87,0,0,1,1.18-9,64.05,64.05,0,0,1,3-9.6,48.67,48.67,0,0,1,5.09-9.52,30.4,30.4,0,0,1,8.42-7.91,20.42,20.42,0,0,1,11.27-3.1,27,27,0,0,1,10.48,3.2,43.77,43.77,0,0,1,7.76,5.59,28.46,28.46,0,0,1,5.32,6.74,29.57,29.57,0,0,1,3.84,12,19,19,0,0,1-.07,4.75,22.79,22.79,0,0,0-.47-4.61,28.14,28.14,0,0,0-4.94-11,26.9,26.9,0,0,0-5.55-5.61,31.47,31.47,0,0,0-7.74-4.28,19.54,19.54,0,0,0-8.61-1.6,14,14,0,0,0-7.79,3.15c-2.28,1.55-4.05,4.22-5.53,6.72a39,39,0,0,0-3.37,8.25,70.06,70.06,0,0,0-1.43,8.37,63,63,0,0,0-.14,7.59,48.46,48.46,0,0,0,.47,5.08,5.76,5.76,0,0,1,.14,1.18c.49,1.63.8,3.1,1.11,4.33.5,1.45.83,2.58,1.15,3.38,0,0,17.49,46.78,21,53.47,5.25-4.75,15.37-19.11,23.29-46.86l.33-1.19.56-1c5.22-8.85,12.33-10.21,16.05-10.21,17.18,0,31.85,26.6,40.4,46.41a57.72,57.72,0,0,0,5-13.27c3.58-13.4,6.52-47.21,6.52-47.21a6.85,6.85,0,0,0,0-1.22,13.75,13.75,0,0,0-.17-3,21.76,21.76,0,0,0-.87-4.14,35.18,35.18,0,0,0-4.54-9.94l-.09-.09a26.16,26.16,0,0,0-8.89-8.62,12.89,12.89,0,0,0-16.57,1.7,21.17,21.17,0,0,0-3.64,4.33,32.3,32.3,0,0,0-2.45,4.09c-.64,1.37-1.2,2.5-1.57,3.5-.73,2-1.22,3.15-1.22,3.15s.28-1.23.73-3.27a39.12,39.12,0,0,1,1-3.8c.57-1.36,1-3.06,1.88-4.75a24.52,24.52,0,0,1,3.21-5.33,18.84,18.84,0,0,1,5.41-4.69,16.1,16.1,0,0,1,7.73-2.22,21.34,21.34,0,0,1,8.18,1.47,21.69,21.69,0,0,1,3.25,1.59c-3.48-13.08-8.66-25-15.48-34.31-29.94-40.33-41.94-80.11-43.94-87.49-.56-1-1.44-2.45-2.54-4.52s-2.31-4.33-3.74-7.11c-.41-.63-.8-1.47-1.18-2.13a71.85,71.85,0,0,0-3.69-6.31c-1.72-3.06-4-6.21-6.26-9.49a122.89,122.89,0,0,0-8.13-9.95,39.67,39.67,0,0,0-4.7-4.81c-1.68-1.59-3.25-3.3-5.08-4.8a112.84,112.84,0,0,0-11.39-8.61A98.08,98.08,0,0,0,2043,2673a57.89,57.89,0,0,0-6.33-3.19c-2.16-.89-4.21-2-6.3-2.91-4.21-1.89-8.5-3.21-12.48-4.77a107,107,0,0,0-11.46-3.47c-3.6-1-6.84-2-9.88-2.54s-5.49-1.14-7.63-1.56c-4.28-.9-6.78-1.38-6.78-1.38s2.5.19,6.85.48c2.24.23,4.87.48,7.86.66s6.47.94,10.21,1.46,7.82,1.08,12,2.16,8.75,1.87,13.29,3.34c2.21.75,4.52,1.5,6.92,2.21s4.69,1.6,7,2.64a129.33,129.33,0,0,1,13.91,6.46,115.64,115.64,0,0,1,13.3,7.89c2.14,1.41,4.14,3,6.11,4.52a68.59,68.59,0,0,1,5.82,4.71,119.17,119.17,0,0,1,10.26,9.94,122.37,122.37,0,0,1,8.19,9.7c2.46,3,4.44,6,6.38,8.52,1.67,2.54,3.15,4.61,4.47,6.44a11.85,11.85,0,0,0,1,1.56c4.38.33,11.86.66,21.06.66,39.8,0,69.38-7.26,83.87-20.28a31.93,31.93,0,0,0,6.5-7.91c.09-.1.19-.1.26-.3a31.22,31.22,0,0,0,3.11-8.47c2.52-13.08-2.64-30.15-15.51-51C2201.87,2617.28,2148.23,2570.5,2074.81,2570.5Z" transform="translate(-1090.27 -1607.53)"/><path class="cls-3" d="M2228.44,2149.18c-21.89-15.19-63.33-38-91.08-52.18l-7.74-4,6.14-6.11c3.22-3.33,9.23-4.56,22-4.56,7.16,0,15.77.41,24,.88a15.38,15.38,0,0,1,2.17.11c-34.08-16.39-112.35-34.65-167.64-47.59-18.41-4.28-35.63-8.32-50.43-12a147.48,147.48,0,0,0-35-4c-51.72,0-100.41,20.57-113.07,30.73-.48.34-.95.77-1.28,1,30.74,6.59,59.21,13.23,85.69,19.92,186.11,47.2,268.83,96.57,298.51,114.26.26.15.56.34.86.52-10.33-13.18-31.51-24.14-40.57-27.84l-29.28-12.2h31.74C2165,2146.18,2196.67,2146.18,2228.44,2149.18Z" transform="translate(-1090.27 -1607.53)"/><path class="cls-3" d="M1536.52,2194.14c-15.9-10.18-30.55-15.35-43.61-15.35-28.47,0-46.27,26-54.24,57.48-.95,3.71-1.82,7.58-2.46,11.43-.65,4-1.22,8.06-1.62,12.14-.4,3.67-.61,7.35-.71,11l-.87,27.67-16.07-22.5c-15.42-21.59-36.91-46.36-66.44-46.36-13.74,0-28.56,5.37-44,16-56.58,38.69-27.28,235.86-17.91,256,7.86,16.67,5,55.54.79,84.25,5.65-9.52,12.8-24.47,22.36-45.18l6-13.08,9.55,10.86c7.39,8.43,14.88,33.57,19.88,57.19,4.31-12.43,6.69-30.59,4.87-60.25l-1.69-27.21,18,20.45c14.12,16.19,25.47,38.86,36.19,61.84,2.95-14.31.48-30.87-11-67.88l-7.25-23.28,20.92,12.56c10.43,6.21,23.09,19.62,32.48,30.51.69-7.82,4-18.26,0-27.59-2.47-5.73-9.39-10.62-15.37-17.6-14.92-17.5-34.5-41.27-51.77-66.83-4.28-6.31-8.55-12.76-12.43-19.31-4-6.39-7.53-13-10.89-19.4s-6.21-12.89-8.59-19a131.35,131.35,0,0,1-5.64-17.84,50.8,50.8,0,0,1-1.6-8.24c-.17-1.27-.31-2.55-.56-3.76,0-1.27,0-2.46-.07-3.64s-.09-2.34-.16-3.42.23-2.17.23-3.21a36.86,36.86,0,0,1,.8-5.46c.4-1.59.71-3.1,1-4.37s1-2.31,1.29-3.11c.71-1.6,1-2.49,1-2.49s-.33.9-.87,2.54c-.23.85-.56,2-1,3.19-.23,1.23-.47,2.73-.7,4.33a30.78,30.78,0,0,0-.31,5.47v3.12c.07,1,.22,2.17.31,3.24s.23,2.36.47,3.59.49,2.4.73,3.7c.49,2.45,1.36,5.09,2.14,7.78a141.55,141.55,0,0,0,6.75,16.89c2.87,5.74,6.14,11.77,9.86,17.74s7.74,12.15,12.1,18.22,8.92,12,13.62,18c18.78,23.62,39.78,45.56,55.85,61.66a30.37,30.37,0,0,1,2.22,2.22c5.75,5.7,10.75,10.54,14.73,14.35l2,1.7c1.86,1.59,3.84,3.57,5.81,5.64,7.42,7.62,16.62,17.14,30.79,17.14,18.16,0,40.83-15.12,67.39-45.1,20.36-22.87,29-53.75,31.92-83.5.31-3.71.61-7.39.77-11.15s.33-7.68.4-11.44a335.76,335.76,0,0,0-3.25-48.11C1579.56,2263,1553.86,2205.19,1536.52,2194.14Z" transform="translate(-1090.27 -1607.53)"/><path class="cls-3" d="M3091.87,2516.47c-14.56-33.52-22.6-30.6-56.58-18.12-9,3.24-19.21,7.05-31.11,10.41-52.33,15.24-207.7-36.81-263.33-66-4.38-2.31-8.1-4.48-11.15-6.45a73.37,73.37,0,0,1-6.06-4.42,12,12,0,0,1-1.47-1.88,144.78,144.78,0,0,0-10-13.64c-7-8.15-14.17-13.93-21.37-17.7-13.69-7.3-27.8-7.72-41.63-5.19-.48.06-.95.11-1.41.2.61.66,1.34,1.27,2,1.93,2.3,2.31,4.77,4.66,7.25,7.11.14.18.37.36.55.56,2.28,2.26,4.34,4.65,6.5,7.05,1,1.1,1.91,2.17,2.94,3.21,1.3,1.5,2.7,2.91,4,4.41,2.2,2.69,4.31,5.37,6.29,7.91.41.48.75.94,1.22,1.41,1.51,2,3.15,4,4.6,5.89a18,18,0,0,1,2.06,2.87c1,1.33,1.9,2.73,2.77,3.87,3.29,4.81,5.91,8.65,7.57,11.1,1.37,2,2.17,3.07,2.17,3.07s-1.52-1.47-4.16-4.24c-2-2-4.58-4.76-7.81-8-1.65-1.68-3.41-3.62-5.39-5.42a1.35,1.35,0,0,1-.4-.37c-2.23-1.93-4.54-4-6.91-6.11a7.84,7.84,0,0,0-1.07-.94c-2-1.84-4.12-3.74-6.27-5.55-2.64-2.08-5.25-4.19-7.95-6.32-1.39-1-2.7-2.07-4.12-3.15a21.42,21.42,0,0,0-2.25-1.64,12.64,12.64,0,0,0-1.58-1.23c-2.7-1.87-5.41-3.67-8-5.47-1.61-1.17-3.14-2.2-4.71-3.18h-.09c-.32-.2-.63-.38-1-.67-.6-.37-1.24-.8-1.78-1.13a6.78,6.78,0,0,1-1.11-.66c-1.19-.66-31.81-20.52-67.38-22.56-5-.22-10.12.72-15.06-.13-33.34-5.73-140.08,36.67-141.27,34.8,9.3-8.58,13.19-12.2,17.58-14.93,1.1-.65,3.15-1.82,5.88-3.39,2.54-1.44,5.81-3.18,9.63-5.12.23-.14.57-.28.86-.43-7.05-7.71-14.31-15.2-21.77-22.59-15-14.88-30.73-29.08-47-42.69-1.2-.94-2.35-1.94-3.53-2.88s-2.22-1.93-3.32-2.77c-4-3.38-8.21-6.65-12.35-9.83-.48-.43-1.05-.86-1.49-1.23-2.23-1.68-4.39-3.39-6.61-5.09-2.72-2.11-5.5-4.14-8.22-6.19-228-170.12-536-228.44-539.77-229.1a4.11,4.11,0,0,1-1-.27C1633,2016.13,1573,1931.22,1571.82,1868.29c-.94-51.81,35.35-94,99.55-115.7,83.15-28.2,339.58-19.82,589.46,33.65-7.56-2.41-15.37-4.8-23.47-7.06-9.17-2.72-18.71-5.49-28.5-8.38s-19.88-6-30.45-8.85-21.32-5.65-32.4-8.56c-22.12-6.16-45.66-11.48-70.16-17.24-6.11-1.41-12.33-3-18.61-4.33s-12.66-2.54-19.11-3.86c-12.8-2.53-25.85-5.46-39.14-7.81s-27-4.61-40.81-6.93c-6.82-1.26-13.83-2.2-20.92-3.1s-14.1-1.94-21.24-2.84c-57-7.15-117.76-11.62-180.19-8.41-31.19,2-62.86,5-94,12.28-31.11,7-62,17-90.51,32.06l-10.6,5.74a113.66,113.66,0,0,0-10.19,6.45c-3.34,2.21-6.8,4.37-10.1,6.63l-9.41,7.48c-6.5,4.76-11.93,10.78-17.82,16.16-2.87,2.81-5.31,5.92-8,8.93a85,85,0,0,0-7.55,9.32l-6.94,9.75L1464.9,1824c-2.14,3.39-3.58,7.15-5.25,10.74a82.71,82.71,0,0,0-4.55,11,139.32,139.32,0,0,0-8.73,46.41c-.23,15.81,1.81,31.4,7.79,45.85l2,5.07,2.8,5.08,2.68,5.08c1,1.7,2.16,3.39,3.2,4.91a98.22,98.22,0,0,0,6.92,9.49c2.57,3,4.78,6.22,7.65,9,10.66,11.87,23.16,22,36.19,31.43a374.72,374.72,0,0,0,41.21,25.62c28.41,15.54,58.26,28.43,88.13,40.2s60,22.12,89.83,31.77c59.54,19.72,118.14,36.06,173.51,52.77,13.86,4.18,27.56,8.27,41.07,12.36,13.77,4.29,26.57,8.7,39.61,12.94,12.88,4.62,25.7,9.42,38,14.13,12.26,5.12,24.36,9.83,36,15.06a902,902,0,0,1,122.42,65.37c4.38,2.78,8.61,5.61,12.8,8.15q6.21,4.39,12.17,8.43c4,2.77,7.79,5.47,11.7,8,3.67,2.83,7.32,5.61,10.89,8.24s7.08,5.38,10.52,7.91c3.25,2.72,6.52,5.42,9.7,8s6.19,5.12,9.23,7.72,5.81,5.08,8.52,7.53c22.12,19.82,38.1,36.77,47.89,49.32,5.15,6,8.44,11.21,10.9,14.45s3.67,5,3.67,5l-1.91,1.41s-1.39-1.64-4-4.8-6.21-7.9-11.77-13.41c-10.59-11.53-27.2-27.61-50.13-45.75-2.78-2.22-5.81-4.57-8.75-7-3.11-2.31-6.32-4.57-9.55-7s-6.62-4.8-10-7.29-7.13-4.8-10.76-7.25-7.34-5.08-11.06-7.62c-3.9-2.49-7.79-5-11.89-7.53s-8-5.14-12.24-7.72-8.56-5-12.94-7.54c-35.09-20.5-76.39-40.75-122.71-59.57-11.51-4.76-23.53-9-35.7-13.76-12.28-4.22-24.67-8.56-37.39-12.75-12.87-3.91-26.43-8.24-39.47-12-13.54-3.81-27.19-7.68-41.12-11.58-27.77-7.63-56.43-15.68-85.62-24.24s-59-17.31-89.19-27.12c-30.15-10-60.55-20.79-91-33s-60.79-26.12-90.13-42.79a384.26,384.26,0,0,1-43-27.76c-13.77-10.26-27.11-21.46-38.81-34.88s-21.81-28-28.54-45.64l-2.5-6.69c-.64-2.16-1-4.15-1.6-6.11l-1.48-6.12-.33-1.41-.11-.8-.22-1.69-.46-3.34a94.54,94.54,0,0,1-1.29-13.38c-.07-4.47-.45-9-.07-13.44a159.32,159.32,0,0,1,10.52-52.06c1.31-4.28,3.34-8.19,5.15-12.24a109.93,109.93,0,0,1,6-11.82l6.68-11.33,7.79-10.64a101.3,101.3,0,0,1,8.38-10.18c2.94-3.18,5.74-6.63,8.82-9.63,6.43-5.8,12.52-12.2,19.58-17.19l10.17-7.9c3.6-2.4,7.25-4.66,10.83-7s7.15-4.84,11-6.76l11.3-5.93c30.33-15.44,62.62-25.43,94.84-32.2,32.22-7.11,64.67-9.8,96.42-11.39,63.65-2.35,124.92,2.77,182.34,11.1,7.18,1,14.33,2.16,21.33,3.15s14.19,2.12,21.11,3.53c13.77,2.55,27.44,5.08,40.78,7.62,13.44,2.74,26.43,5.75,39.3,8.56q9.7,2.14,19.11,4.25c6.26,1.41,12.4,3.1,18.64,4.62,24.41,6.21,48,12,70.06,18.55,11.08,3.2,21.82,6.21,32.29,9.22s20.55,6.3,30.33,9.32,19.32,6,28.45,8.85,18,5.66,26.34,8.58c14.59,5,27.93,9.51,40.36,13.74,112.4,26.73,221.24,62.74,309.8,109-72.72-57.85-204.77-137.67-362.61-199.52-188.65-73.89-467.59-144.31-725.2-59.88-137.22,44.85-218.52,113.34-241.66,203.37-44.15,171.43,136.29,367.47,138,369.45.07.1.15.18.15.24,11.46-33.52,34-59,68.81-59,16.66,0,34.68,6.12,53.66,18.27,24.22,15.53,51.45,81.62,60.6,147.31a340,340,0,0,1,3,64.58c1.79,1.37,3.55,2.64,5.38,4.09,77,56.81,189.36,128.08,339.38,194.78,39.33-24.8,79.41-37.23,119.91-37.23,82,0,140.57,51.77,156.1,76.81,16,25.89,21.79,47.92,17.58,66.18a9.2,9.2,0,0,1,2,.88c1.39.8,127.39,73.1,384.81,2.93-57.16,4.41-146.89,13.08-160,13.68-60.82,2.64-108.21-147.51-103-156.07,1.14-1.71,10,16.47,16.4,28.38,20.19,37.71,40.66,114.43,91.65,108.68,45.28-5,103.83-9.47,165.76-14.3,20.32-1.52,41.14-3.21,62.15-4.85,82.44-6.59,168.11-14.17,237.24-24.52,83.22-12.43,118-25.53,132.42-35-6.86.52-13.16.75-19,.75-35.82,0-52.05-9.42-63.63-16.2-8.3-4.9-11.08-6.51-18.31-3.67-30.91,12.13-92.44,20.47-128.63,13.74-10.92-2-19.11-4.89-27.07-7.63-17.6-6.21-35.82-12.43-87.6-10.44-48.69,3.76-83-1.13-106.85-8.76-38.89-12.52-50-32.28-50.65-33.7-7-14-18.86-24.29-33.69-30.17a89.28,89.28,0,0,0-38.64-5.88,98.27,98.27,0,0,0-21.42,3.3c-51,12.84-90.13-21.46-86.95-25,1.59-1.7,40.44,17.5,82.34,6.86,30-7.52,58.55-4.33,80.83,7.58a82,82,0,0,1,23.77,19.26,77.32,77.32,0,0,1,10.35,15.57c.09.14,14.66,23.94,72.42,31.35a29.91,29.91,0,0,0,3.55.42c17.35,2,38.34,2.55,63.8.66,55.7-2.36,75.6,4.62,94.85,11.29a166.16,166.16,0,0,0,24.35,7c28.71,5.38,76.67-.14,106.91-8.89,4.23-1.27,8-2.5,11.46-3.92,15.76-6.11,25.33-.52,34.63,5a94,94,0,0,0,18.76,8.76c7.72,2.54,17.75,4.43,31.19,4.8,11.08.33,24.52-.46,41.07-2.82h.24c1.5-.18,3.81-.94,5.89-4.62C3107.61,2579.53,3108.25,2554.69,3091.87,2516.47Zm-567.64-102.61a9.29,9.29,0,0,1,8.91-6.51h.22c67.25,1.38,96.74,4.67,105.43,21.33,4.08,7.81,2.62,17-4.39,27.44-2.21,3.38-6.82,7.39-16.05,7.39h0c-24,0-75.33-29-90.39-39.07A9.46,9.46,0,0,1,2524.23,2413.86Z" transform="translate(-1090.27 -1607.53)"/><path class="cls-3" d="M2624.31,2448.21h1.92c4.7-7.43,4.7-11.1,4.29-11.91-5.09-9.65-43.68-14-82.35-16,29.35,14.78,60.76,27.86,76.14,27.86Z" transform="translate(-1090.27 -1607.53)"/></g><g id="Слой_4" data-name="Слой 4"><path class="cls-4" d="M2547.73,2364.82c-.47,3.12-.8,6.22-1.43,9.09-.49,2.22-1,4.39-1.67,6.5,19.82-7.77,44.64-15.24,71-17.37-25.38-79.58-71.45-164.36-98.74-164.36a12.39,12.39,0,0,0-7.49,2.64c-15.67,11.25-56.87,44.33-74.07,90.85,33.28,25.7,65,53.94,93.71,84.81a2.76,2.76,0,0,0,.49-.84c.54-.95,1-1.88,1.5-2.83.52-1.13,1-2.34,1.55-3.56,1-2.27,1.74-4.91,2.68-7.54.63-2.64,1.68-5.46,2.16-8.39.65-2.91,1.28-5.92,1.68-9s.78-6.12.94-9.18a87.22,87.22,0,0,0,.4-9c0-2.91.13-5.73,0-8.5s-.23-5.24-.4-7.59c-.15-4.76-.76-8.67-1-11.44s-.48-4.39-.48-4.39.38,1.52,1.18,4.18,2.14,6.45,3.29,11.16c.55,2.36,1.11,4.89,1.8,7.58s1,5.61,1.6,8.62.9,6.12,1.29,9.28a87.5,87.5,0,0,1,.71,9.75c.25,3.33.08,6.62.08,9.88S2548,2361.72,2547.73,2364.82Z" transform="translate(-1090.27 -1607.53)"/><path class="cls-4" d="M2149.47,2574.75c-33.09,0-66.13,9.31-98.82,27.76-3.31,1.94-6.75,4-10.09,6-3.09,1.87-6.14,3.9-9.23,6a373.08,373.08,0,0,0-57.43,48.76c-2.49,13.84,22.73,42.64,43.12,65.85,9.79,11.29,20,22.79,28.68,34.21,22.78,29.66,31.21,54.9,25.7,77.16-4.92,19.95-21,36.42-47.89,48.93-3.48,2.77-4.84,8.81-5.09,14.92,10.67-10.81,23.42-16.46,37.31-16.46a11.38,11.38,0,0,1,2.57.32,14.53,14.53,0,0,1,.73-1.79,65.17,65.17,0,0,1,2.91-6.49,41.23,41.23,0,0,1,4.07-6.21,35.37,35.37,0,0,1,5-5.52,23.48,23.48,0,0,1,6.35-3.61,13.19,13.19,0,0,1,6.93-.8,15.43,15.43,0,0,1,3,1,6.76,6.76,0,0,0,1.44.61l1.13,1c.65.53,1.43,1,2,1.55.49.66,1,1.27,1.43,1.8a13.9,13.9,0,0,1,2.1,3.06c.94,1.83,1.48,2.73,1.48,2.73s-.71-.8-2-2.4a13.89,13.89,0,0,0-2.47-2.54,15.56,15.56,0,0,0-1.58-1.47,14.57,14.57,0,0,0-2.09-1.08l-1-.6c-.43-.1-.81-.25-1.2-.33a5.94,5.94,0,0,0-2.47-.28,10.93,10.93,0,0,0-5,1.31,19.36,19.36,0,0,0-4.48,3.82,30.68,30.68,0,0,0-3.34,5.26,34.84,34.84,0,0,0-2.37,5.7,57,57,0,0,0-1.62,6c-.38,2,1.06,13.65,1.06,13.65.8,3.76,1.43,8.18,2.14,13.17,1.27,10,3,22.78,6.45,32.58,9.46-7.59,17.74-18.55,24.1-27.07,6.75-9,11.39-15,17-16.91,0-1,0-2,.07-3a73.87,73.87,0,0,1,1.18-9,64.05,64.05,0,0,1,3-9.6,48.67,48.67,0,0,1,5.09-9.52,30.4,30.4,0,0,1,8.42-7.91,20.42,20.42,0,0,1,11.27-3.1,27,27,0,0,1,10.48,3.2,43.77,43.77,0,0,1,7.76,5.59,28.46,28.46,0,0,1,5.32,6.74,29.57,29.57,0,0,1,3.84,12,19,19,0,0,1-.07,4.75,22.79,22.79,0,0,0-.47-4.61,28.14,28.14,0,0,0-4.94-11,26.9,26.9,0,0,0-5.55-5.61,31.47,31.47,0,0,0-7.74-4.28,19.54,19.54,0,0,0-8.61-1.6,14,14,0,0,0-7.79,3.15c-2.28,1.55-4.05,4.22-5.53,6.72a39,39,0,0,0-3.37,8.25,70.06,70.06,0,0,0-1.43,8.37,63,63,0,0,0-.14,7.59,48.46,48.46,0,0,0,.47,5.08,5.76,5.76,0,0,1,.14,1.18c.49,1.63.8,3.1,1.11,4.33.5,1.45.83,2.58,1.15,3.38,0,0,17.49,46.78,21,53.47,5.25-4.75,15.37-19.11,23.29-46.86l.33-1.19.56-1c5.22-8.85,12.33-10.21,16.05-10.21,17.18,0,31.85,26.6,40.4,46.41a57.72,57.72,0,0,0,5-13.27c3.58-13.4,6.52-47.21,6.52-47.21a6.85,6.85,0,0,0,0-1.22,13.75,13.75,0,0,0-.17-3,21.76,21.76,0,0,0-.87-4.14,35.18,35.18,0,0,0-4.54-9.94l-.09-.09a26.16,26.16,0,0,0-8.89-8.62,12.89,12.89,0,0,0-16.57,1.7,21.17,21.17,0,0,0-3.64,4.33,32.3,32.3,0,0,0-2.45,4.09c-.64,1.37-1.2,2.5-1.57,3.5-.73,2-1.22,3.15-1.22,3.15s.28-1.23.73-3.27a39.12,39.12,0,0,1,1-3.8c.57-1.36,1-3.06,1.88-4.75a24.52,24.52,0,0,1,3.21-5.33,18.84,18.84,0,0,1,5.41-4.69,16.1,16.1,0,0,1,7.73-2.22,21.34,21.34,0,0,1,8.18,1.47,21.69,21.69,0,0,1,3.25,1.59c-3.48-13.08-8.66-25-15.48-34.31-29.94-40.33-41.94-80.11-43.94-87.49-.56-1-1.44-2.45-2.54-4.52s-2.31-4.33-3.74-7.11c-.41-.63-.8-1.47-1.18-2.13a71.85,71.85,0,0,0-3.69-6.31c-1.72-3.06-4-6.21-6.26-9.49a122.89,122.89,0,0,0-8.13-9.95,39.67,39.67,0,0,0-4.7-4.81c-1.68-1.59-3.25-3.3-5.08-4.8a112.84,112.84,0,0,0-11.39-8.61,98.08,98.08,0,0,0-12.33-7.63,57.89,57.89,0,0,0-6.33-3.19c-2.16-.89-4.21-2-6.3-2.91-4.21-1.89-8.5-3.21-12.48-4.77a107,107,0,0,0-11.46-3.47c-3.6-1-6.84-2-9.88-2.54s-5.49-1.14-7.63-1.56c-4.28-.9-6.78-1.38-6.78-1.38s2.5.19,6.85.48c2.24.23,4.87.48,7.86.66s6.47.94,10.21,1.46,7.82,1.08,12,2.16,8.75,1.87,13.29,3.34c2.21.75,4.52,1.5,6.92,2.21s4.69,1.6,7,2.64a129.33,129.33,0,0,1,13.91,6.46,115.64,115.64,0,0,1,13.3,7.89c2.14,1.41,4.14,3,6.11,4.52a68.59,68.59,0,0,1,5.82,4.71,119.17,119.17,0,0,1,10.26,9.94,122.37,122.37,0,0,1,8.19,9.7c2.46,3,4.44,6,6.38,8.52,1.67,2.54,3.15,4.61,4.47,6.44a11.85,11.85,0,0,0,1,1.56c4.38.33,11.86.66,21.06.66,39.8,0,69.38-7.26,83.87-20.28a31.93,31.93,0,0,0,6.5-7.91c.09-.1.19-.1.26-.3a31.22,31.22,0,0,0,3.11-8.47c2.52-13.08-2.64-30.15-15.51-51C2276.53,2621.53,2222.9,2574.75,2149.47,2574.75Z" transform="translate(-1090.27 -1607.53)"/><path class="cls-4" d="M2303.11,2153.43c-21.89-15.19-63.33-38-91.08-52.18l-7.74-4,6.14-6.11c3.22-3.33,9.23-4.56,22-4.56,7.16,0,15.77.41,24,.88a15.38,15.38,0,0,1,2.17.11c-34.08-16.39-112.35-34.65-167.64-47.59-18.41-4.28-35.63-8.32-50.43-12a147.48,147.48,0,0,0-35-4c-51.72,0-100.41,20.57-113.07,30.73-.48.34-.95.77-1.28,1,30.74,6.59,59.21,13.23,85.69,19.92,186.11,47.2,268.83,96.57,298.51,114.26.26.15.56.34.86.52-10.33-13.18-31.51-24.14-40.57-27.84l-29.28-12.2h31.74C2239.68,2150.43,2271.33,2150.43,2303.11,2153.43Z" transform="translate(-1090.27 -1607.53)"/><path class="cls-4" d="M1611.18,2198.4c-15.9-10.18-30.55-15.35-43.61-15.35-28.47,0-46.27,26-54.24,57.48-.95,3.71-1.82,7.58-2.46,11.43-.65,4-1.22,8.06-1.62,12.14-.4,3.67-.61,7.35-.71,11l-.87,27.67-16.07-22.5c-15.42-21.59-36.91-46.36-66.44-46.36-13.74,0-28.56,5.37-44,16-56.58,38.69-27.28,235.86-17.91,256,7.86,16.67,5,55.54.79,84.25,5.65-9.52,12.8-24.47,22.36-45.18l6-13.08,9.55,10.86c7.39,8.43,14.88,33.57,19.88,57.19,4.31-12.43,6.69-30.59,4.87-60.25l-1.69-27.21,18,20.45c14.12,16.19,25.47,38.86,36.19,61.84,2.95-14.31.48-30.87-11-67.88l-7.25-23.28,20.92,12.56c10.43,6.21,23.09,19.62,32.48,30.51.69-7.82,4-18.26,0-27.59-2.47-5.73-9.39-10.62-15.37-17.6-14.92-17.5-34.5-41.27-51.77-66.83-4.28-6.31-8.55-12.76-12.43-19.31-4-6.39-7.53-13-10.89-19.4s-6.21-12.89-8.59-19a131.35,131.35,0,0,1-5.64-17.84,50.8,50.8,0,0,1-1.6-8.24c-.17-1.27-.31-2.55-.56-3.76,0-1.27,0-2.46-.07-3.64s-.09-2.34-.16-3.42.23-2.17.23-3.21a36.86,36.86,0,0,1,.8-5.46c.4-1.59.71-3.1,1-4.37s1-2.31,1.29-3.11c.71-1.6,1-2.49,1-2.49s-.33.9-.87,2.54c-.23.85-.56,2-1,3.19-.23,1.23-.47,2.73-.7,4.33a30.78,30.78,0,0,0-.31,5.47V2340c.07,1,.22,2.17.31,3.24s.23,2.36.47,3.59.49,2.4.73,3.7c.49,2.45,1.36,5.09,2.14,7.78a141.55,141.55,0,0,0,6.75,16.89c2.87,5.74,6.14,11.77,9.86,17.74s7.74,12.15,12.1,18.22,8.92,12,13.62,18c18.78,23.62,39.78,45.56,55.85,61.66a30.37,30.37,0,0,1,2.22,2.22c5.75,5.7,10.75,10.54,14.73,14.35l2,1.7c1.86,1.59,3.84,3.57,5.81,5.64,7.42,7.62,16.62,17.14,30.79,17.14,18.16,0,40.83-15.12,67.39-45.1,20.36-22.87,29-53.75,31.92-83.5.31-3.71.61-7.39.77-11.15s.33-7.68.4-11.44a335.76,335.76,0,0,0-3.25-48.11C1654.23,2267.3,1628.52,2209.44,1611.18,2198.4Z" transform="translate(-1090.27 -1607.53)"/><path class="cls-4" d="M3166.54,2520.72c-14.56-33.52-22.6-30.6-56.58-18.12-9,3.24-19.21,7.05-31.11,10.41-52.33,15.24-207.7-36.81-263.33-66-4.38-2.31-8.1-4.48-11.15-6.45a73.37,73.37,0,0,1-6.06-4.42,12,12,0,0,1-1.47-1.88,144.78,144.78,0,0,0-10-13.64c-7-8.15-14.17-13.93-21.37-17.7-13.69-7.3-27.8-7.72-41.63-5.19-.48.06-.95.11-1.41.2.61.66,1.34,1.27,2,1.93,2.3,2.31,4.77,4.66,7.25,7.11.14.18.37.36.55.56,2.28,2.26,4.34,4.65,6.5,7.05,1,1.1,1.91,2.17,2.94,3.21,1.3,1.5,2.7,2.91,4,4.41,2.2,2.69,4.31,5.37,6.29,7.91.41.48.75.94,1.22,1.41,1.51,2,3.15,4,4.6,5.89a18,18,0,0,1,2.06,2.87c1,1.33,1.9,2.73,2.77,3.87,3.29,4.81,5.91,8.65,7.57,11.1,1.37,2,2.17,3.07,2.17,3.07s-1.52-1.47-4.16-4.24c-2-2-4.58-4.76-7.81-8-1.65-1.68-3.41-3.62-5.39-5.42a1.35,1.35,0,0,1-.4-.37c-2.23-1.93-4.54-4-6.91-6.11a7.84,7.84,0,0,0-1.07-.94c-2-1.84-4.12-3.74-6.27-5.55-2.64-2.08-5.25-4.19-7.95-6.32-1.39-1-2.7-2.07-4.12-3.15a21.42,21.42,0,0,0-2.25-1.64,12.64,12.64,0,0,0-1.58-1.23c-2.7-1.87-5.41-3.67-8-5.47-1.61-1.17-3.14-2.2-4.71-3.18h-.09c-.32-.2-.63-.38-1-.67-.6-.37-1.24-.8-1.78-1.13a6.78,6.78,0,0,1-1.11-.66c-1.19-.66-31.81-20.52-67.38-22.56-5-.22-10.12.72-15.06-.13-33.34-5.73-140.08,36.67-141.27,34.8,9.3-8.58,13.19-12.2,17.58-14.93,1.1-.65,3.15-1.82,5.88-3.39,2.54-1.44,5.81-3.18,9.63-5.12.23-.14.57-.28.86-.43-7.05-7.71-14.31-15.2-21.77-22.59-15-14.88-30.73-29.08-47-42.69-1.2-.94-2.35-1.94-3.53-2.88s-2.22-1.93-3.32-2.77c-4-3.38-8.21-6.65-12.35-9.83-.48-.43-1.05-.86-1.49-1.23-2.23-1.68-4.39-3.39-6.61-5.09-2.72-2.11-5.5-4.14-8.22-6.19-228-170.12-536-228.44-539.77-229.1a4.11,4.11,0,0,1-1-.27c-165.16-49.38-225.22-134.29-226.37-197.22-.94-51.81,35.35-94,99.55-115.7,83.15-28.2,339.58-19.82,589.46,33.65-7.56-2.41-15.37-4.8-23.47-7.06-9.17-2.72-18.71-5.49-28.5-8.38s-19.88-6-30.45-8.85-21.32-5.65-32.4-8.56c-22.12-6.16-45.66-11.48-70.16-17.24-6.11-1.41-12.33-3-18.61-4.33s-12.66-2.54-19.11-3.86c-12.8-2.53-25.85-5.46-39.14-7.81s-27-4.61-40.81-6.93c-6.82-1.26-13.83-2.2-20.92-3.1s-14.1-1.94-21.24-2.84c-57-7.15-117.76-11.62-180.19-8.41-31.19,2-62.86,5-94,12.28-31.11,7-62,17-90.51,32.06l-10.6,5.74a113.66,113.66,0,0,0-10.19,6.45c-3.34,2.21-6.8,4.37-10.1,6.63l-9.41,7.48c-6.5,4.76-11.93,10.78-17.82,16.16-2.87,2.81-5.31,5.92-8,8.93a85,85,0,0,0-7.55,9.32l-6.94,9.75-5.89,10.31c-2.14,3.39-3.58,7.15-5.25,10.74a82.71,82.71,0,0,0-4.55,11,139.32,139.32,0,0,0-8.73,46.41c-.23,15.81,1.81,31.4,7.79,45.85l2,5.07,2.8,5.08,2.68,5.08c1,1.7,2.16,3.39,3.2,4.91a98.22,98.22,0,0,0,6.92,9.49c2.57,3,4.78,6.22,7.65,9,10.66,11.87,23.16,22,36.19,31.43a374.72,374.72,0,0,0,41.21,25.62c28.41,15.54,58.26,28.43,88.13,40.2s60,22.12,89.83,31.77c59.54,19.72,118.14,36.06,173.51,52.77,13.86,4.18,27.56,8.27,41.07,12.36,13.77,4.29,26.57,8.7,39.61,12.94,12.88,4.62,25.7,9.42,38,14.13,12.26,5.12,24.36,9.83,36,15.06a902,902,0,0,1,122.42,65.37c4.38,2.78,8.61,5.61,12.8,8.15q6.21,4.39,12.17,8.43c4,2.77,7.79,5.47,11.7,8,3.67,2.83,7.32,5.61,10.89,8.24s7.08,5.38,10.52,7.91c3.25,2.72,6.52,5.42,9.7,8s6.19,5.12,9.23,7.72,5.81,5.08,8.52,7.53c22.12,19.82,38.1,36.77,47.89,49.32,5.15,6,8.44,11.21,10.9,14.45s3.67,5,3.67,5l-1.91,1.41s-1.39-1.64-4-4.8-6.21-7.9-11.77-13.41c-10.59-11.53-27.2-27.61-50.13-45.75-2.78-2.22-5.81-4.57-8.75-7-3.11-2.31-6.32-4.57-9.55-7s-6.62-4.8-10-7.29-7.13-4.8-10.76-7.25-7.34-5.08-11.06-7.62c-3.9-2.49-7.79-5-11.89-7.53s-8-5.14-12.24-7.72-8.56-5-12.94-7.54c-35.09-20.5-76.39-40.75-122.71-59.57-11.51-4.76-23.53-9-35.7-13.76-12.28-4.22-24.67-8.56-37.39-12.75-12.87-3.91-26.43-8.24-39.47-12-13.54-3.81-27.19-7.68-41.12-11.58-27.77-7.63-56.43-15.68-85.62-24.24s-59-17.31-89.19-27.12c-30.15-10-60.55-20.79-91-33s-60.79-26.12-90.13-42.79a384.26,384.26,0,0,1-43-27.76c-13.77-10.26-27.11-21.46-38.81-34.88s-21.81-28-28.54-45.64l-2.5-6.69c-.64-2.16-1-4.15-1.6-6.11l-1.48-6.12-.33-1.41-.11-.8-.22-1.69-.46-3.34a94.54,94.54,0,0,1-1.29-13.38c-.07-4.47-.45-9-.07-13.44a159.32,159.32,0,0,1,10.52-52.06c1.31-4.28,3.34-8.19,5.15-12.24a109.93,109.93,0,0,1,6-11.82l6.68-11.33,7.79-10.64a101.3,101.3,0,0,1,8.38-10.18c2.94-3.18,5.74-6.63,8.82-9.63,6.43-5.8,12.52-12.2,19.58-17.19l10.17-7.9c3.6-2.4,7.25-4.66,10.83-7s7.15-4.84,11-6.76l11.3-5.93c30.33-15.44,62.62-25.43,94.84-32.2,32.22-7.11,64.67-9.8,96.42-11.39,63.65-2.35,124.92,2.77,182.34,11.1,7.18,1,14.33,2.16,21.33,3.15s14.19,2.12,21.11,3.53c13.77,2.55,27.44,5.08,40.78,7.62,13.44,2.74,26.43,5.75,39.3,8.56q9.7,2.14,19.11,4.25c6.26,1.41,12.4,3.1,18.64,4.62,24.41,6.21,48,12,70.06,18.55,11.08,3.2,21.82,6.21,32.29,9.22s20.55,6.3,30.33,9.32,19.32,6,28.45,8.85,18,5.66,26.34,8.58c14.59,5,27.93,9.51,40.36,13.74,112.4,26.73,221.24,62.74,309.8,109-72.72-57.85-204.77-137.67-362.61-199.52-188.65-73.89-467.59-144.31-725.2-59.88-137.22,44.85-218.52,113.34-241.66,203.37-44.15,171.43,136.29,367.47,138,369.45.07.1.15.18.15.24,11.46-33.52,34-59,68.81-59,16.66,0,34.68,6.12,53.66,18.27,24.22,15.53,51.45,81.62,60.6,147.31a340,340,0,0,1,3,64.58c1.79,1.37,3.55,2.64,5.38,4.09,77,56.81,189.36,128.08,339.38,194.78,39.33-24.8,79.41-37.23,119.91-37.23,82,0,140.57,51.77,156.1,76.81,16,25.89,21.79,47.92,17.58,66.18a9.2,9.2,0,0,1,2,.88c1.39.8,127.39,73.1,384.81,2.93-57.16,4.41-146.89,13.08-160,13.68-60.82,2.64-108.21-147.51-103-156.07,1.14-1.71,10,16.47,16.4,28.38,20.19,37.71,40.66,114.43,91.65,108.68,45.28-5,103.83-9.47,165.76-14.3,20.32-1.52,41.14-3.21,62.15-4.85,82.44-6.59,168.11-14.17,237.24-24.52,83.22-12.43,118-25.53,132.42-35-6.86.52-13.16.75-19,.75-35.82,0-52.05-9.42-63.63-16.2-8.3-4.9-11.08-6.51-18.31-3.67-30.91,12.13-92.44,20.47-128.63,13.74-10.92-2-19.11-4.89-27.07-7.63-17.6-6.21-35.82-12.43-87.6-10.44-48.69,3.76-83-1.13-106.85-8.76-38.89-12.52-50-32.28-50.65-33.7-7-14-18.86-24.29-33.69-30.17a89.28,89.28,0,0,0-38.64-5.88,98.27,98.27,0,0,0-21.42,3.3c-51,12.84-90.13-21.46-86.95-25,1.59-1.7,40.44,17.5,82.34,6.86,30-7.52,58.55-4.33,80.83,7.58a82,82,0,0,1,23.77,19.26,77.32,77.32,0,0,1,10.35,15.57c.09.14,14.66,23.94,72.42,31.35a29.91,29.91,0,0,0,3.55.42c17.35,2,38.34,2.55,63.8.66,55.7-2.36,75.6,4.62,94.85,11.29a166.16,166.16,0,0,0,24.35,7c28.71,5.38,76.67-.14,106.91-8.89,4.23-1.27,8-2.5,11.46-3.92,15.76-6.11,25.33-.52,34.63,5a94,94,0,0,0,18.76,8.76c7.72,2.54,17.75,4.43,31.19,4.8,11.08.33,24.52-.46,41.07-2.82h.24c1.5-.18,3.81-.94,5.89-4.62C3182.27,2583.78,3182.91,2558.94,3166.54,2520.72ZM2598.9,2418.11a9.29,9.29,0,0,1,8.91-6.51h.22c67.25,1.38,96.74,4.67,105.43,21.33,4.08,7.81,2.62,17-4.39,27.44-2.21,3.38-6.82,7.39-16.05,7.39h0c-24,0-75.33-29-90.39-39.07A9.46,9.46,0,0,1,2598.9,2418.11Z" transform="translate(-1090.27 -1607.53)"/><path class="cls-4" d="M2699,2452.46h1.92c4.7-7.43,4.7-11.1,4.29-11.91-5.09-9.65-43.68-14-82.35-16,29.35,14.78,60.76,27.86,76.14,27.86Z" transform="translate(-1090.27 -1607.53)"/></g></svg>